<mxfile host="app.diagrams.net" agent="Mozilla/5.0 (X11; CrOS x86_64 14541.0.0) AppleWebKit/537.36 (KHTML, like Gecko) Chrome/132.0.0.0 Safari/537.36" version="26.0.14">
  <diagram name="Page-1" id="nXogrBKZxCBo9tW-kLmn">
    <mxGraphModel dx="1394" dy="772" grid="1" gridSize="10" guides="1" tooltips="1" connect="1" arrows="1" fold="1" page="1" pageScale="1" pageWidth="850" pageHeight="1100" math="0" shadow="0">
      <root>
        <mxCell id="0" />
        <mxCell id="1" parent="0" />
        <mxCell id="YDp1JJaOg0z-zhQRBLFw-4" value="" style="sketch=0;aspect=fixed;pointerEvents=1;shadow=0;dashed=0;html=1;strokeColor=none;labelPosition=center;verticalLabelPosition=bottom;verticalAlign=top;align=center;fillColor=#00188D;shape=mxgraph.mscae.general.video" vertex="1" parent="1">
          <mxGeometry x="20" y="830" width="170" height="173.47" as="geometry" />
        </mxCell>
        <mxCell id="YDp1JJaOg0z-zhQRBLFw-5" value="" style="shape=image;verticalLabelPosition=bottom;labelBackgroundColor=default;verticalAlign=top;aspect=fixed;imageAspect=0;image=data:image/png,iVBORw0KGgoAAAANSUhEUgAAAUAAAADwCAIAAAD+Tyo8AAAAAXNSR0IArs4c6QAAIABJREFUeAHsvQlYFcm5/0+Sm9wkN7lJbpKZJJPZHHXGUUfHDVcEFAHZ18O+r7KIgCKgCCg7su87AsoOsi/KpggoAoqACzp7MtvNrJkZnZn4/815Tf37nu63OXXoIzpzePrhqfPtt6urq95Pv9XV1d1Kv/ivn3MuP//lfwqy/OcvfibI8rOf/5Rq+Y+f/USQ5Sc//bEgy4//40dUy49+okS1KP1YiW75kZLSY7EoyfnvsaiEH+GVwEnvL/7r54LQ+/Nf/qcg9P7nL35GRe/Pfv5TQej9j5/9RBB6f/LTH1PR++P/+BEVvT/6CSW9P35M6OVxXNyl6dYoAOZHXQEwnAIUAMsY8OlwpLdWAKwAWJoorQBYAbCMNQCnGOzUpOhC83e2pYFTGhsFwDK6L+a4QumKCKyIwAqAZYRTGniEAhXLR5oyPAo2WPkVEVgRgeWI3/xdH3NcofT5l/Dh5IAdLwYwpvPHW/bahRrEwkat+XFlr5Umukpjo+hCy3iawBxXKP3h4Df/vWDH+8tf/YJzwQDmNOYRsXwwnX0K4FewEwQGMK09lg8bddkUDH5a4DF72ttRmD12k5nWHstnYXTClQQeRJf67jpWD0LpaP3wsCfIKgxUTOfHlb0WA5JWx0DFdNlwZW+lABh1TanhmVcOhFXOhNRlEApULB/0GAWhlCcTDFRMZyPKr9CCitljoGI6G0XZFAXAqGtKDc+8cuDk9kfUE2Mw8ITS0WPkYU+QVRiomM6PK3stBiStjoGK6bLhyt5KATDqmg8HYIH2IhSoWD5oLQlCKU8mGKiYzkaUX6EFFbPHQMV0NoqyKQqAUdcUCK2Hkz8GnlA6ehQ87AmyCgMV0/lxZa/FgKTVMVAxXTZc2VspAEZd86EAjAFGWyosH6F0tDyCUMqTCQYqprMRFVbBwMZAxXQ2irIpCoBR11xQgGmfDxEKVCwftJYw9v7r17/kXDB7TMdAFUqnxRsDGNMfd4CFur2EORC1wz0ULLHSMnWs5I+mziz5/0lj4P36N7+iWnho52QV2y+mc2Yig4gBjwFMq2PA0+pYPMciNqZjAC+UjuGBlech2EvsGtsj6BLGc/7E2gXTsQz/D7TMkyAneP/1619S0fvr3/wKywcDUiidlmEMYEx/3AGmdRTMgYTSMTyw/OVtj+0XeySbx55zFVb/mM6ZCVaY7/r5GHgKgAFpBcCYS8mmyxtI2vxlOwrpt8JAxXQsZ+y4lGhBxeyxE4FQkRbLRxGBMVfg1zFHkbeOOSK2X3nbY/sVSudvBenXYuWRO8DyBlsBsPROwLTEHELeuryBpM1f3sfLrPP5pLFyKv33b3/NuWCRFtMxUDntwRgLqlS6AmDZ3AJzCHnrtIDJ217ex0vbOrSDlwqA53j5puIaWFgXlzeQtPkLe3Ts3OQO8G9+99+cC2fk5BE5IzDYsyM8jFpTRVrMWN4RmHZ0mvZ2EWaPnYlpdcyB2K72cBRawORtL+BRY1VNpdO2rxInvTKIbEpB4WGecxXniUAGEQMe07ETAQawUDpthKdtYKHsqbzwe2zMCTzP8QpV/1g+CoAfvM8AAxjTFwpgLGJjOtbwtDqPjypW/eSnP6atT6HsFQArAJbqExYKSvlrQCggafNRAKwAWAEwxddzaAGTt70CYAXACoAVAP/uv7+vg1iKa2CIIfwdyB/IWqgKzuEGeUdaLH9FBFZE4B90BMbAwHROegX8mB62X0xX+u3//IZqwe4wPWoRGLvzRHsbCYvAmC7v0WnMgWh1zCEwHYuxQtnT5oOVh1bH9ovptPUsb3tqgKlo/+3//IYW+IU6EWBgYzoGMK1OCzx231jejoLljzn6465jx4vpC9UuSr/7/W+plscFYM5ZIg/huWVagDF7DGxaR6G1xxyUVscAFiofLH+hdNpyYvUsb10B8IM3B2GRllbHgKTVFQADQkIBSZuPAuAHl9YL1YX+oUVg2jM9rYPS2mPACJUPlr9QOm05aetfKHtFBP6eRGBah6B1UFp7DCSh8sHyF0qnLSdt/QtlrwD4ewKwUF1uWsfF7DGQMHtMx/KRt46VB9OFApI2HwXACoB/ijnlfHQMMNo8sXzkrdOWkxY8oewVACsAVgDMMZXlsQH4D0/8nnP5nz/8jmqhuhf1u9//VqjbUQs1SIZNFMF0eY9mY11oWh1zXKEixuOeD219ytteiZPePzzxeyp6/+cPv1MAjKELugLgxx1dKL+8gaTNXwHwg3f6YbedMJ0fV/baxwXg7wdm8jsKWsDkba8A+HsCMDZRRCgHkh8Sj1fOQtWnUPkoAFYAPMd7OcHVHi/M5FdaocATKh8FwN8TgDm76L/4r5/TOgoWyeWHxOOVM219ytteAbAC4P8TgTlPBL/81S8eL8zkV1p5A0mb//cWYNrbS9hgFa3OHr56OKPQnOBh4ZQnMnPmwwMwrcNhaGH5YPZC6dh+hdJ5moBqFVYepSf+9EfO5Y9P/oFqedRuR2EAYzr2HDKm04KN2WPAYzoGGKZTeYkMxphjCaXLUCSqTWjLiWW+UPX/vQUYmygiFMBCgY2BiumYo9DqmCPKW8eAkfd+5Z0/bf3T2mPlVwD84MsyGJC0OhZpMR0DFdNpGx6zxxxC3roCYKxF+HWsXRQAKwD+OeYc8tAVAPODSrtWAbACYAXAAtQALXhC2SsAVgAsgPtKH6sVEVg2dLFLKgXACoAVAAtQA7JhKf1WCoDneEeXUKPT2GAVpmMNg+nSNzm/pfQxU1hLRQTmbxdsLeYPSk/++QmqhfOmMY+I3UzG7htjulCPN9LeXqK1X6gTgVAnCMxRaB0Ls3/UdOx4hdKxdhFK/8EBjD23jIGK6RiomC7v21GYQwjliBh4WP6Y/aOmY+UXSsfaRShdAfCD99pjoGI6BiqmKwB+1NCF8ggFKpaPUKBi+SgAVgD84K1gmAuCjuGHbYXZP2o6Vn6hdAw8oXQFwAqAFQBLVQOyIS0UqFg+CoAVAEvlvljkxNwas3/UdKz8QukYeELpCoAVAD/SANOCRHuCoM2f1l4oULExFAXADwCmHZ3GBqswHWsAoXTMUWgd7nG3f1wAFqrdlf781J+olj/95UnOhepm8pN/foLn1jHnKux+MqbT3k/GAMbuP2P2mE47mi1UA9PmQ3sioLWX9wkCK49QOlafnMf169/8CrOn1bHAoACY7v31hGcMVEynBRhrMEyndQjMXihH/77mQ1tvmD3WjrS6AmAFwA/eCgau9n0FT6jjwoDE8sfsaUHF7BUAKwBWAPwrDD+2jgFJq2NA0uoKgBUAKwBWAPyXJx/3QSxycStlArvWxXTFNTA7mj2OChZpschJa4/lg+mKCKyIwIoILEAExgBTAPzgrbfY7SJMp72NJGXgJWZYpMV0RQSWLd5iAGC6bHuRfitsv5zti1EtoK7012ee4lyeevovVAt2M5nzpjGPuFBdcQx4Wp0QLpHAwKbVOR1FQFFA3xIkKwwYHl2Q/WKZyFDVnFlh7c5p/Jvf/TdmrwD4wfvraUHF7CW4JT+xBqDVZXAgqk0wB1oonQdUzlXyLidVZfIYY+2OlR+zVwCsAPjBy4bA2zAHWiidk1IeUd7l5GGSahUGJJYJZq8AWAHwIw2wvIGkzR8DjFbHgKTVFQArAFYA/ODNpNLATAsqZk8LKmavAFgBsALgRwhgMmgikVAAPMftKGxQilaXqHfyE2sAWh07owulSxOFHqYN7XHJu2y05cHssXbH/I04kkRC7hEYu72E6dgdJtrbS5g97X1jrEJpdYl6Jz+xhsR0WofA7DGdFgAsH0yXd/6wX9q9SG+PtQumY/WA2WN+RRxGIqH09LN/pVo4bxr/9ZmnsJvGGKiYjgGM6RiotDrnQ8g8Iu2JQKLeyU/aBiMbSiQwh8B0WseizQfLX946hiJWfnnrEs1EfnLuF9ZiLsGpCwYwLdiPGvA8rHKuwgDGdM7a5xFJS88zwekov/v9bzGQMHuhdHnvV975z7M5yOac9QlrebyCvUoB8IMPU3BSyiNioGI6u+r5FdLSckpwOtBDEOUNmLzzl1NzkGz5vYK9VgGwAuA53gomLNXyBkzY0rJzI6TJKcFGlF9RAPw9B5jtggurKAAG8vmxlH6tAmAFwN+rCIwFRqFOW1j+tLpQl1oKgL/nANM6llCOjuUj7wiMHS9WHlody59WXzCAn372r9iAM5WuGIXm7ybROoRQ9rQOTWsvb4CxWqUtJ2YvVD1zjo9iVP/xyT9gx6X0zHNPcy7PPv8Me3nmuaexm8acmTzz3NNUVPMYY8BjOnafGdOx+8yYTnufGWsAzoZ84k9/5GlL6VfBTql8DnNcrPxC6Vghhcpf3vlg5cfal7M8f3zyD5g9plMDjDGMAYwBz8Mq5yoMVEzHQMV0DFRMpwUYow5rGMyeVud0FB4Rc0SeTQRZtVD7FaTwf3ji91j5qdoXjDldC8tHiR1meRSglJNJBcCc9U5EDDysYTB7Wp3WQTFHpM2H1n6h9ktbTqz+sXyo2lfuAD/7/DMYqJjOSbsMF9JYpMV0LNJiOhZpMZ2QKWUCa0hMxxyFVsccC9MXCqSF2i9WD0LpWPtiOuZOmL3Sc4ue5VywOIyBiukKgKFJsAbAdFpQae2FclCh8sHKL1T+QuWDlRPTsfbFdLkDTAu2AmCsSTAdmhZzCFodcxTafIQCAMsHKw9mv1A6Vk6snjEda31Mx/JBIzBnWH5u0bOPO8Dy7nJjDUCrYw2GORCmC5UPlr+89YUClXO/cLBYlVLpQvnDggGMRWZM5xya5hExUDEduzbGdNprY1p7zBvYwGCW/Do7n0dT4QTpoYnsOsFqlRZIWn/A8ldatPh5zgWLwJguVGR+3AHGGkZ6nTQV5itUOslNIkGVCY8x28VlU3h2IcgqKuY5D4EUQ6Im4SfWvpzGT/75Ccwe07F8UIA5qV60+HmhAMYGvTAdAxvTeYIz5yosMmM6bWTGGgbTsQYTSifu+ANJcDKJzXAixpyVw9kEWDvKW1cA/ODDFBiomK4AmNO5H1mRMClNghwFJ6ucorxBxfxNAbAC4Aev+yNe+4NKcNIogygUwBioWCCRO8C018aKLjS4AuZDmKNg9pj+g6KU52A5AzKxx2qPrWPtQqtjAGO6AuDHLAJjDsF2KX6F+OgPJMFfG/Nfi7ULpmNAYpEW0+UOMDbohUVaTMcGqzCdc6SKR8QqCNOxBsAaTN76/F0Qcvi+8ozVD9YumD2mY/lgOuY/mL9hutILSxZxLtgoNKZjoGL2GKiYjoEqlI6xjVUcp05aBWs2tk42kUiwLUGRMCM/MXtOh/vTX57k1J/88xMYwJj9o6Zj5cfqh1bHjpc2H9JwEglOv+IRUYA5qX5hySIMSAxg7BqY0x6MORnG8uEEGJ555MyH057n4QqeuuNcJdEeD+0n5kCYw9EWDMvnUdOxesB0rB4we1ody5/TeZ56+i+YPaYrLV76AueCAYzptGBzAswzVRMDmJPSZ557GrOXN8BYw2A61jC0ulCOhe2XNv/HxZ72eDF7Wl0of/jBAYwBTwu2IF1urBVl0DEHwkDC7DEdy+dx12mPF7On1YXyHxRgzrC8eOkLtBF4oSIzFoFpARYKbKEaDGOb1oFo7R93ULHyY/WA2WP1T6tj/kCrKwB+8EowDFRMp61oznxIJtI3P9lEIiF9DmCJOS6mYw79uOvY8WL1KVHtMv/k9AeesRhsRyjAS15czF5IWGbHYSzSsi1Bwa6BsXywiIrlg9nTRmC2Pal6zjola6VJkBwwd2HrZBOJBNtSNgVz6McdVKz82PFitSdR7TL/lMY9pLFZMIAxUDEdAxIDGBsPYwMJCruyMEvMnp3DnAppfsxd2DrZRCLBtpRNwRyaVseAedR07Liw2pOo9jl/zukDEgb8Xsdeq8QOszyKDBGYbCKRwEDFIjYGMGc+PFSzq0A2RaLeZftJmh9zF7ZONpFIsC1BkTDj/ynDbQwMgEcNVKw8WPmx+sQaGqtYzB7Tab2RDmBp2JYAFW4dY1jOX+cEGEQ2xthZgPNlfWDMX6FYM0ipk1bH3IWtk02kTLBzAAXbHLPHdAwAeetY+TGdszzYQT319F+wfDBdyhYX3EzuAPMMXM+fXp6JJdijyxjDbFClAVhiKxmaB3MITMd2gdnLW8cY4ARGQBHbL3a8nPaYsQw61i60uoRHzflTaelLSzgXnmAr/SqJaCzNT1qqeSIw5yrs2lh6sPnrlLbBwF56j8Hylz4HYS05weDpimP2tDrtUXDmT5sJjz3WLrQ6v3ex18oXYB7UMZgfAsDsrjWPgoGN6ewq5ldoG1je9jw+SrWKExgZuqZUO5XBWKj65G9l/rVQBmKDuRanjgL84rKl7AViNQ+W81wlQ3+bM8zyiDysCrKKs5YxkbTZ/N2IZDWfBCmGDCRIbKIAWLaGwFwF0+kAfnHZUrky/BAA5mGbcxUt1VhFY7pszSynrWQAmGwikZDgmfyUMJP5J8lQygTtjuRUw3Nmi/kJpiuxwyy/wnnBvPSlJfOMvbD59xhgzhMBaRWsXYkBSWCWguhsL58TD/YmoGAbYva0OpY/ptPmT1ufpIFkSHD6hpTiIwcwLcOcYZNH5B+45tlQylVS1juYkcaWcBeisxMSlhI/2fZUCvn0JGTLP7OPHwkMJIkCy/wTyx/TaXdEVW/PPv8MVbszjYlf0Y7+gL3SsuUvcS78cZi9ljYyc9qTOMwe4sIOD4v87BxoTw2wR1K/EglmG0iTltgcfpINqdyF0xexHDiNQSQE/vWZp556+i8vLFn056f+tGjx88xNnlv0LBMJsglJMI2ZaWIgkWDmxkwzt2WmJTYnP5k28khj9SmUTppeygSn/yxa/LxgALORBgUDjBNgnq44J5CLl76A5Y/ZYycCTMcqTsp6J2ac+ZC1tG7BdlksB7YlKH995qlnnnv6uUXPQph9+tm/ArpLXlxMSgXfZ3/muaeXvLiYkCORwPKXMJvzJ20+mL1QOlafQumkkqVMcPrPdwC/vGIZ54IByQ7XmKUCYGbbcDYAMaB1C7abYjmwLcnbDsjeFy1+/tnnn4Hw+9dnnvrzU3/601+ehHu5f3zyD089/ReJm+eceUqIcxIrYSCxOfkpYUZ+EgM5JbD6FEonlS9lgtN/hAEYkMYwxiIkFoExHcsH07EIjOlYBMZ0rEJpdSnbj5hhDkQMJBKc9s8tenbx0hfAcvHSF5a+tGTR4uef+NMf4Srj5RXL1m1Yu1Vly3Y1lXUb1r68YhnEarDnzJAt0nLFzgEULB/MXihdohoF/0nrJ5gfohGYMyy/vGIZOwLzA4yBjYGK6RiomI6BiulYBdHaY/nQNhhmj3kSrf1zi54lmwC3Tz39l+1qKs6uTv6B+w6GBIUcCj4UFhqw39/Gznq98joyggBzVOfkBAMP07EMae2xfGh1rJ6F0knlS5nA/EowgIUCmxZ4WoA57YFSzjqiBZhtD9lK2U5zmmEOhG2I2f/1madgE/Igx6LFz1vbWuUV5NY31jW1nD7d3NjY1FBxqvxoVKSuvg7UG2AMeRIkOHdB1kqZ4MxEouvOzAqzF0rH6pNWx8qD5cPphC8sWcT2K1CUlq98WWLBYi/oGKiYjgFJq9NGZuyAeQDm3ITTfsmLizmNeUR5377CGp7TgSCKMp/3ePb5Z15YsmiPt2d9Y93g0Pm+gd7O7o7W9pba+pqUtGQzkSnM4YEDJ0EYAOPcBRM2ZprTmNkdkPBs5rbMNJYPpy6RJ/sneyu2jbAK1l6cOvErtjc+cgDTngjYhwQKOWaJBKe9hA3zJ6e9gABzNhiPiLkRtglmD9e9ixY/D9fALy5b+tyiZ+0cbMtPlvX0nT3T093R1U4AtrS2WLb8JTiHLl76Agx6wc1P7BYoEzZmmo0KKFg5BbHHMic6ey9k1TwTWLswfYyZ5rQnBmxv5ACYBGTOUIwBRqsLFYFpIzO7CkAhdcRMwCrOXWD5sHXIkLNhBAzLWP7YLqAzTABe+tKSZ59/xsJKlFeQO3C+v6OrvaWtGQBOTk1ydnV6de1qCMIEYNnAY6MibD6c+RMIJWqJ6OytyCqJhEQOc/6U2Jz8nHNDpgHxSbZ3Ka14ZbnEogBYor7mCTBUOrM9mGnSovNMMPOUSHPmDBxyAnxucKCjq72p5XRLW3NtfU1yapKTi+Oada+yAebMGUQ2EvwKlhX/Vuy1WD6gS1MzVDlIZCj9T+JjUibY6ILCATDwTDCWSHCGZRnExyVic9LLM+EEq2isafndRfq1WP5z6swutIWVqLC4YPji0Jme7qaW082tTTV11SlpyS5uzuuV10EvGsgnV61Y/tKXHCyFygfbr1D5Y/nQ6lJyS8wwv0IBlgjL5KcEzzL/pGX+cQEeq2jSEhIJ2oYXyh6KAbkteXExXAObW5gVlxaNjl3qG+htbm1qajldW1+Tmp7i5uG6cbPyyyuWLX1pCel785cEAwnTsdwwe1ody59Wl2g+mX9ifoLpWCBBAV65agV7ERxj6fkXCnjs2hurIEzHKhrTaVua1rEwe2y/S15cDP0IEoEXLX7eTGSaV5A7Onapt7+nvrGutr6msvpUemaap5eHiuq2Fa8sJwDDJFZyc5i9d6EAw/Jh71E2BasfeeuYn2A65ocKgB+8twCrIEzHKloondaBMPflzAcK+eKypTCcDsf43KJnTc1N0jPThkYudJ/tqqqpPFlZUX6yLCUt2dPLQ1V9+8pVKwBgoJfwz7kLrDyYzpkJzwkCs39cdFo/wfyQDuCVq1aQIPyQE9LHarDEIjbWFaeNzLQNQGtP64icYGCZALcAMGy45MXFzz7/jJGJYUpa8tDIhTM93QBwxanyrJxMP/+9OzTUV69Z9eKypeQBEnApbBec5eERafPB7OWt07YjZo8BiemYf3IDzO48E+Uhc0t296gBjFU01mC0Oq0jcrKBZUIAJl1iANjQ2CAjK3107NLA+f66htqauuqauuqiksKDIUG7tDRWr1m1bPlLcCBLX1oCLoUdF7ZrTKfNB7N/XHRSgYRM8CjyU8qEEiFTIgHkSIgy/CQESpnAQMUiKqZjkRbTsfrCQMV0WgfCHFquOjwzCIew5MXFLyxZtGz5S4sWP69vqBefGHdtenJs4jKMYJWfLMvJy/YP3Ke1W3PlqhUAMHSewQWxcnKeUHimBGL5YDptPT9S9mx6MfebU0cBloFVzk2k5HZOMwxsTMfAxnRasLGaxcDG9AVxLFIYGH+GY1m89AUTM+O4hNgrkxOXx0cB4JOVFYXFBQdDgnT1dVauWgED0XBDGLbCyo+BJ5SO7fex0HkApvVDpVdWr+RcOGlcuWoFpzGPOCeZUhpgoGI6Biqm01bcYw0wcPvyimUvLlu6fOXLK15Zvmz5S4uXvmBgpH88OXH8ytjl8dHm1qba+pqqmsrSspKw8MMGRvqr16xa8cryF5cthRvCkMCAEQpULB9sv/LWyblvPglwHk6Xo/XPRw5g7MQhJefEDAMb02krjrP2ly1/CQMb0+fjB/PcdsUry5evfBkKBlnp6uukpqeMXxkbm7gM07Aqq08VlxYdiQgzMTN+de1qAjDQSyZIs0vyWIDELvacCtaOtDrmP7R+qLR6zSrOhSeoUq3CgKTVCZlSJjBQMZ224rAGoG3IOT1GTgZwrgHMVryyfL3yuh0a6s6uTgVF+VcmJ65MTrR3tlXXVgHAEUfDLaxE6zasJQAvW/4SPByOFU8BML8nYP6D6Zh/Kr26djXnwkm1DCIV7TzGCwU8VnGYjjUApvM3s/zWAsDKmzZoaO60sBI5uzr5+vkcCgstLSuZnLp6bXqyo6udABx5LMLa1mq98joAGI59+cqXeXocGNhC6fKrGf6csXak1Wn9B7NHAeak+tW1q2kZ5mGSapUCYH7HwtZijrV85cur16wyNTcJORQcExcdeSwiPjEuNT2lrOLExNXxa9OTnd0d1bVVVTWVZRUnYuNj7B3tNm5WJgDDlTNcRXPuWihQsXw4d0o69thRPzo6BiSmYz1HaoAxsDGdFnjMHgMYOwtg9lgPHCqIvRarOEzHGgDTF9Cl1m1Y6+nlkVeQm5OXHR0bFZ8Yl5WTeaK89PL46OTUVQC4urbqZGVFUspxByf7zVs3wXDXyyuWzQkwBphQ+gLWG9WusXan9R/MXu4AY4BhOgYwZk8LKhtRfgWrOKxhqFqXx1jejv7CkkWr16zy9PIoKimsrD6VkpYcnxh3PDmxqKRw5NLwzI3pnr6zNXXVAHBKWrKzq9NWlS0wFQ/qZMUry2V4RxoWUYXSeapUkFVYu8tbx/xQac26VzkXLKLS6hiQmI7ljwGM6UKBjVWcvBtMEG+DoSbOoi59acmy5S/Z2tvAS7CycjLjEmLjE+MKiwsujo7M3rl1bnCgvrGupq76ZGVFcmqSi5uziuo2qFVpAMbKL9SJCcsH2y+tzllpMoiY/2A65y4w4+UrX0YB5qRaBhEDFdMVAEMT0jocZs/pEC+vWLZy1YolLy7epaURHRvV3NpUVnEiKeV4VMyxzOyMgfP9t27fvDA8eLq5ER5ISk1P8fTyUNuhCqdLpj/RlhYDTygdqwdaHas3Wp1ZV/JIyx1gDEhMx84RGPCYThuZaSO2PBqDmSeto2D2zDyZaXhFzpZtm/cHBdbUVdfW12TnZkXFHEtMSujoap++PnVucAAArq6tyszO8PLZs0ND/dW1q19ZvZKZD6SxvbN1WpBo7dl7lE1hH6NsCv8F2vzXKq1dv4ZqwQDDdAxUTMeApNUVAIPjYm4HkyJfXbvaycUxJy+7svpURlb68eTE2PiYppbTMzemhy8ONbc21TXU1tbX5BfmwXTodRvWvrp2NeRJroc5CeHZL6e9UCK2X6H0+SPHnwMWSDBdad2GtVQLFe1r16/BwMZ0DGxaHQMeAxvTsYrjb4b5rxXK4bB8YAgcsHc5AAAgAElEQVRq5aoV2jpafv57Y+KiE5MSEpMSklOT2jvbbr82O35lrLW9pbGpoa6htqAoP/BAgK6+znrldTAfa/nKl19ZvXLlqhXLV77MyR62X05jAUVsv0Lp829Z/hwwf8N0BcDcU8EJz1jF8TfD/Nc+BIdbvWbVylUr1q5fo6G508bO2s3DNfBAQExcdF1D7e3XZieujnd0tTc2NdQ31hWVFAaHHtQ31AOA2Y+Fs0uL1QDbUlgF269QOuYPQunE8aRMKK1XXke1UIXrdRvWyjti00ZyLDJjOlaPQjUYlo9QDsfOB/CD/a5eswq6xMqbNqjvVBNZmh8MCSotK5m+PnVlcgIAbmxqKC0rCT0cYmhsoLxpA1wGk2LDhGo2hOz9gsK2FFbB9iuUTg5cTgnM3zAdjcDKmzZwLo8akFjXGgMS07EKwnSs/YRyFCwfWnfnzIcw/MrqlaQC4VSoobnzaFQkzOVobm1qbGqAD6wcCgs1MTOWAJhkLn2psN6y9DkIa0kOQcoE1u4LpVMDLO8IjJ0gsEiL6cQvpUxgYGM6LdhCNbCUfsZvRgrDBlhVfXtY+OGRS8NTM9faO9tONzc2tZyuqqkMjzxiJjIFgFevWQUXwOy+NP9+sXAN87rm3FYeBqQqpExg7b5QOtqF5gy/yps2KAAGpLEGk9IPZDYTxInJ3tkAb9qycX9Q4IXhwZkb02d6ulvbW+D7DFExxyytLTZt2QhnTHg2WIbCYPFThqwE2YRUhZQJrN0XSqcGmOqCeb3yOlrgMXssMmM6FpkxXcpATcxoI7NQDSyln81pRspDjghqZuNm5YD9/oND52/O3ugb6G3vbIMHg+MSYm3srLds2wx3FiAIkzg85+6IAUYdMXjICVIPUiawdl8oXQmLtJj+QwOYtmGk9AOZzYTyb1IACYCVN23w2evdf65v9s6twaHznd0dLW3NdQ21MB16u5rKeuV1a9a9Cs+lkUykL5UCYFqP4rdX2rhZmXPBAKbVaYHH7LHIjOlYZMZ0eUdm/maQfi1hRsoEhhbZXALg9crrvHz29Pb33H5tdmjkQteZTgA4Iyvd1d1FVX278qYNJAiTOExymzMxZ3nmzEFYA+lrHixJdT0iCQXADyaifV8BntPdiSOSGnB1d+k60zl759bF0ZEzPd0QhHPysvd4e+7QUN+4WXndhrUQhMnz4XPuhRg8LgCTannEE0qbtmzkXLBIyxmueUQsH0zHIjCtjkVmTMciM9Z+xN0lEpg9dqbH7DEdy4dWJ0SRHcGBrFy1wt7Rrr2zbfbOrcvjo/Ct4M7ujoKifG9fr11aGpwAS793sl+JhPQ58FtKZEt+8m/FXkuqRSIh0dwL/hONwBiTnLRv2rIRs6cFjxZsDEhMx0ClbQmJdpX5J9t1Ho4Cng0TOV5du3rNulehZpYtf8nByb66turO67fHr4z19vd0n+1qbW/JK8j12euttVtz05aN65XXrV2/Bg55/qV9ZfXK+Wcicw4yN5ycNqT1w8ceYNoTxOMCtpz8g2QLHg/oAr1QMy+vWGbnYFtZferO67cnro4DwO2dbQVF+b5+Pto6Wpu3bpo/wKQYpBMuM4FSbsjcozRpWpCEsscCDKajXWgs0m7euolzweyxiEqr04KK2SsABvfFAF7xynJrW6sT5aWzd25dmZzoG+g909Pd0dVeWlYSsN9fV19ny7bNMB0AXBaDgckV24a4uwTAEmWTWMvMkzbNLgO/Qkr4kBMYqJj+yAGMdcVpgcfshQIbq9CH3N4y7w7cl/Sc121YCzWzctUK+Mz3rds3r01P9p/rO9PT3XWms+JU+f6gQH1Dva0qW6QBmOAhUcK169cwz6EwoA3GpD9PthUwIVGMOX9i7StvnVk50qSVOMOpDCIWgTEgaXUMSFpdATD4LrDBBvjVtatNzIwzstKv35yBx/p7+3vO9HTX1tccCgs1MjHcrqaycbMyTNEh3szPAzEDj4Qm27hZWXnTBsiHOaZNCsYs5/xJ5i8hey0p80NOSAMt00Zpy7bNgiwY8xjYtDot8Jg9Bjwt2MxKZKYfcnvLvDtwWRIP1yuvg5pZs+5VAyP95NSkmRvT12/OnBsc6O3v6e3vaWxqgO8zqKpvJwBzPm0mAQOUEKpovfK6jZuVN23ZCN4CY58Qz5mhWCIHQX5iFYVljtkz21oeacwPMV0B8IOHrrAKom0krOEfNR0clw3wug1rdfV14hJip69P3Zy9cWF4sG+gt2+gt6Wt+WhUpLmFmar6dhiIhpphHxdEdZI/cxfrlddt2rJxy7bNW1W2bFXZsmXb5s1bNzFDMeRGtsXokkHH2pFdflAwe3nrmB9iuhJU5fz/Y2Eci8y0Om3ExuyFisxYhWIN/Kg5CnFTOBDlTRugZtYrr9PW0YqOjZqauXZz9sbQyIW+gd7+c32t7S3RsVEWViK1Haqbt24ivV/28UocKbm6hgi/VWWLiuo2smxV2bJ56yYSipmT5yEfWlYl9k5+ssvJr5D2JUcKCaLLKYH1EDGdGuBHDVQMSEzHKoK2PfibX/q1xMMecgIrofKmDdvVVCKPRVybnrx1++bIpeH+c3395/raO9uSU5MsrS0IwEAm5CNReNK1hrXQP4fOs6r6drUdquo71dR2qKqqb9+upqKiug2i8aYtG6F1JDDmYRj2CwaQxo5LyvbduFl5zbpXocDrNqxV3rQBTi7Qd4BJLORyg+lLUuYvuJkSORdKmcBiNQY2rS7vyEwLNrORmGnalsAca6F0rPzKmzaoqG47EhF2ZXLi1u2bF0dHCMApacm29jYAMLgyf+GZnWeI8Ju2bNyupgIAq+9Ug4WQTHrUEmWDvXBiLCzAyps2bN66ad2GtS8uW/rs88+seGX5q2tXQ6kAYFIwpicsbFoB8INnOWibgbSllAl+X3/4a7Fib9ysvFVlS8ihYHi9++jYpYHz/f3n+jq62jOzM5xcHNV3qm3ZtnnTlo1QZiwf5hExI/BWlS2q6tsB3R0a6js01HdpaWho7tTQ3Km2Q3W7mgrBGFqERGMJVknUhWi/Zt2rzD2y01g5mR1j6AJs3Ky8ctWKp5/96+atm9R2qKqoblNV375l22YV1W3QieCcd0jrP0LZK21XU6FasECNRWZafaEiNhaZMZ22ATAHWigdK//Gzcpbtm0OCj5wYXgQpkOfGxzoP9fX2d2Rk5ft6u6iobkTGCMXtzyHADYk/G7euklFddt2NRX1nWo7NNQ1NHfu0tLQ1tHS1tHS1dfR1tHS1N6loblTfaeaqvp2uDyG+ieYQVQHmJlpQixWGOx4QSe94tVrVhkaG5SfLBu/MtbTdzY+Mc7Ty8PGzlrPQFd9pxp09eHwJQZZMD+Rt64A+MGzHLQVze8Q7LWYYy2Uzi4hswb8/Pee6em+8/rtsYnLg0PnYTpHUUmht6+XpvYu8GN2DkyFeVwA8OatmyCOqapvB3q1dmvu1tXWN9QzMNI3MTM2MjE0MjE0MNLXN9TT1dfR2q2pobkTAgYJyxCQmQATdCHB3C8zzSwbMw1HDSVct2Htk39+wsbO+qt7X9775u6Xd7947Y07ZRUn9gX4ubq7iCzNNbV3wclFRXUbjOTxxGRmfcovraSqvp1qwcI1Fplp9YWK2BIn1Dl/0jYJ02kehTRWfuhGevt6dXS1w/MMF4YH+8/19fSdPVFe6ue/V1tHC9oIcsCORQIecvsXeqTQc9bW0dIz0DUyMTQxMxZZmptbmMF/M5Ep8KxvqKeto7VLS4PE5C3bNsNdaNK1xgogoWPHCwVbr7xuy7bN6jvVdmlpJCYlfPr5J3e//urb+9/cv39/bOJyanpKwH5/e0c7U3MT6CBsV1OBG2Bz+om8DRQAP5jaLVRFY44i4U8L/hMrJzyr4O7p1tRy+rU37kxcHQeAe/t7TlZWwOvdAWCoMSwf5gESeuEOMIxjaWju1NqtqWega2hsYGpuYmltYW1rZWNnbW1rZWltIbI0F1mam4lMTc1NDI0N9Ax0NbV3AclwnQx3jyFySuwLKxLRJS5ioX9uYKTv5uGamp5yZXLiX/e//frbe/fv/+vu119dHB3Jysk8GBLk6u5iYmYM/QK4KoYa4B92FcqvsHyU1HaoUi1YuMYiM62+UBGbvxnYa7EKxXTiPVImmE7JTEu5OTFjbstMEwOJxJZtm9crr3N1d2lsanjjrdevTE5cGB4cON/f299TWX1qf1Cgrr4OAEzu30rkAD8l9gWzr6AnvHnrJmAYLoD1DfWMTAzNRKYWViJbextYgGSA2cJKZCYyNTQ20DfUA37IQBrnrkEklJIrcM6mgZOLkYmhf+C+mLjogqL8/nN9EHvvfv3VJ599fHF0JDM7Izj0oJuHq42d9W5d7V1aGmo7VGEkj+0YD1lRUv/3aL40CUCdk2FaUDH7xx1gHpcSZBUTDGnS2E45vXnTlo0qqtvWK69zcnGsrq166503r01PXhgehAmVVTWVQcEH9Ax0mXdu2fnzl4rYwy0l6LVq62gZGhuYmBkDxjZ21nYOtrAAz5bWFhZWIhMzYwMjfWanGigieUICCsAEWIJhOPWQGjATmfr57z0UFpqYlAAfSX73/b/DZfCnn3/S29+TlHI85FCwu6ebjZ21kYkhuRImY+ZMaMkoLFOUPk1KJWWCDmC4/84ZsTmplkHEwMZ0oYAn9S5lAmsSKet9TjMJpxT8J1YAFdVtyps22DvanayseOudN6dmrl0YHhwcOt/b31NdW3UwJEjfUA8A3qqyhUDCWTxCMnst7J2EYg3Nnbr6OtCdBoxFluYWViJLawvoWltYiaBHbWRiqG+oB2Fwh4a6qvp2FdVt0GTQIqRIJAF7JxOwJRpOU3vXHm/PwAMBe7w9vXz2uHu67fH2HJu4fPfrr77+9t6Xd78YuTScnZsFANs52BoaG2jt1lTfqQYOSUakSbZM/yGi/BIKgL+blEtuDzBrnz+NNQkGBq3OdnphFaw8cLfTxs66uLTojbden74+RQCura8JPRxiZGII93jmBJinwARguC0MY1qa2ruY49KGxgYwvmViZmxqbmJqbgKDW6bmJjBYDSPVBGPSiKRpyDHCALhEg0K7iyzNA/b7B+z3d3JxtLW3MTIxtLASDZzvv//d37++vPvFxNXx0rKS8Mgj3r5e9o52ZiJTfUM9Dc2dMKUMJpMxd032Qooh1wQ1wFhPmzMsyyDSBm0sMmM6FrGhOaX/T9pJIiFUaxHnk1MCK6eK6rZNWzZaWInyC/PuvH575sb00MgFeKShvrHuSESYmchUfacaVKNEX5S2qFCGLds2w4RKMkkL7g9rau/S1tHarautZ6Crb6gHPAPGZLzaxMxY31BPU3sXYMw8F5MDZIswlgaH4Obhuj8o0D9wn4ubM9wo0jfUKy0rgS70F1/98+bsjebWpqyczKDgA04ujpbWFkYmhnAZTKZ5QPkhGhN/IEdHFHkkFAA/mFgvPbpMh2A3CfGbeSZoYaC1x4oHdzhNzU1S01Nuzt64fnNm5NIwDEQ3tZyG7zNoaO4kLku7X6Y9m38oFTzwsF1NhUyc1tDcqam9C2AmV8siS3O4NhZZmkPXmkwFgUld0LuGPMkoGsEM9uLm4RoUfMDLZ4+tvY2+od4ODXULK1FyatLYxOXZO7feeufNmRvTI5eGW9tbklOTIAibW5hp62jBnS04BMiK/IeADPtle4iwCjXAO8TT39j/schMq9MGbaEiNhaZMR0DXqjmwQATSucsJzk3GZkYHk9OnLkxfXP2xsXRERiIbmlrjo2PsbW30dTeRQCmLQ8TYEgzcyBXqlA8mLZFMN6hoQ5hmVwtA8MwZG1hJTK3MIPBam0dLXK/B1qQSRcAtmnLxq0qW+wd7YKCD3h6eVjbWgHAzq5O+YV5QyMXpmauTV+fGrk0fG5woLO7o6ikMCz8sJfPHntHOxMzY+jAw0U4nGug00d2B3EeDoRULGe1z0dUAPxgJikGKqZ/vwHWN9SDJwpv3b45OnYJBqLbO9sSkxIcnOy1dmuSaz8mfoKnyZPDgB9MAlHboQoBWVdfB2aAwKi1g5O9vaOdrb2NjZ21SDwtBDrYWrs1yXRrDc2dOzTUSXxWUd3m5OIYHHrQy2ePs6uTq7vL/5uGdTAkqKikcPbOrfc+eHf2zq2RS8NnerpPNzdWVp/KysmMijkWejjEP3Cft6+Xm4crYK+rr7NDQx1iMskc8xBhdTqAIfDC1HOJ/+yYLJuyUBEbu2bGdFqwaZttPmdlabbFygO3Rnbrakcei5icunr7tdmxicswjtXR1Z6cmuTs6qStowWPEJERYGn2KJsNlBN2RMoMJMPYtZGJoaW1hY2dtYOTvbOrk7unm6u7C8Bs52ALd5LNRKYGRvqwwCA2TAvR0Nzp7OoUcig4KPhAUPCB48mJSSnHC4rya+qqu892TVwdvzI5MXJpuG+g93RzY31jXXVtVVnFifzCvPTMtLiE2KNRkYEHApxdnewd7bR1tGCSFqkZGKvH/EQoXYkWMwlu+X9C5rRMctovVNf6BwUweNVWlS3aOlqHwkInro4DwOcGB84NDnR0tcMXkgjA29VUyACslHySKA3XosyfnAozWwIwdFlh7FpXXweGjm3tbRyc7J1cHF3cnF3dXVzdXZxcHMlPGztrcwszGEM2tzAztzCztLZwdnUKPRySV5BbU1fd0tYMb8Du7O4YED+A1Sd+FUnfQC/owDBgfKK8NL8wLzM7Izk1KTY+5lBY6B5vT0trC3IRDm4Dd5ugtyLhSLQAk2OXSMgXYOix0J4jOO05qeYRFwp42obB7CXaSfCf2H7hFpHWbs2QQ8GXx0dhOjQA3NndkZ6Z5uLmvFtXmzyRzwRMmrQEsdJsQs4RpBLII01kPqaJmTEwaWNnbWtvY+9o5+Bk7+bhCvd1vX29fP18vHz2ODjZOzjZW1pbuLq7JKcmZedmnSgv7RvovXX75u3XZuH55+GLQ6Njl/rP9QHAvf09XWc628WfSq5vrGtsaqitr6mqqaw4VX6ivLSgKD8rJzMp5XjE0XAvnz1wgtDW0YLrdjJYzRypkSBZyp9Yeynxh9D5r+WkUQaRh1XOVQqAibtzJjCHgFsju7Q0goIPDI1cgOnQA+f7B873d53pzM7N8vTy0DPQhUs+eMKOM39MxIjF7Dl1ABiamDzYpK2jpW+op2ega2Ckb2RiaGpuYudga+9o5+Ti6Ozq5Onl4enl4eTi6OBk7+ruEhZ+uPxk2fsfvvfVvS+//vbev+5/++nnn0B34+LoyPDFIQjCvf09PX1nO7s7WttbTjc3NjY11DfW1dRVV1afOllZUXGqvPxkWVFJYVZOZnpmWnjkEXdPN0trC0NjA5i2DXO2mNOfCMlSckvMsPaSO8DzPwVADrTMc1LNIwoFPKnxeSawBhNK5y/eDg31wAMBA+f7AWB4JLj7bFdeQa6Xzx6YyQDP9NKWhxNIHhHylzCAwkPXFMaBAQzyrg/ypDHceYKrX5jjpW+o5+LmHJ8YN3xxCB5X+Orel/fv3//iq3/CxyhGxy6NXBomAMN77VvbW5paTgPAtfU1ldWnKk6Vw1J+sqy0rKSwuCAlLTn0cIinl4eltYWuvg6MnMGZjuldhGGqBNZeSru0NKgWoYCkzUcBMC0q/PaYQ8DrMtR2qPr6+XSd6bzz+u0rkxPnBgfgEw3FpUX7AvxgJgOEPv69sNdKoDjnT5IDGYhmlhxGjJgkEIaZcU9thyrMf1TbobpbV3tfgF9VTeVrb9z59v43/7r/LZmz8ebbb0xfn5q4On5xdAQA7uk723Wms7W9paWtuanlNARhAPhkZUX5ybLyk2VlFSdKy0pKy0py8rJj42MC9vs7ONmbiUzJsJZESZillT7NPAUw00qa2ruoFuaIPEDI5J+NJXPtfNLsnPmVhQJe+ibht2S6qTzSPHvfoaG+XU3F29ertb3lzuu3J6euwlxoeCQ4YL+/qbkJTH7apaVBAJMygRErzeZkwhapEBKEQYGDIv0s4uhE0dDc6eBkfzw5ceB8/9TMtc+/+Ozb+9/Ao793v/7q/Q/fI68BGxw6P3C+nwlwc2sTMFzXUFtVU8kEGMa0cvKy4xPj9gcFunu6WdtaMS80SElkTpBDkEjIAjAPh2yoeIxpV0HmsBVJs/cIykIBTNtCGEjER+WUwParqr4d3oPh6eXR2NRAAO7pOwuPBB8MCTITmcK7b+CGMGdWWLExUDF7ts65OyJyRmB4/FBVfftuXW1vX6+TlRUXhgfffPuNt//21jt/f/u9D95974N33/7bW7N3bk1cHR++OASTN+A1Bl3iT5y3tDUDwI1NDZwAF5cWFZUUJqcmHQwJcvd0s3OwNTEz1tbRAj9kUkfrIWDPzIGZVtLarSn9ArGaFjxOeyzscxrv0tKAG3eQYKYxex6wOVdJDzypPtlagr0Vcb6HmWAXAxQCsJuHa11D7Z3Xb1+bnhwcOg8AV1afCg49SADW1N7Fkw/n4bCBBIXTGBPZPWcY9WXSy+y4qu9U262rraq+Xc9ANyj4wOnmxqmZa3dev/3u+38Hht946/XZO7duzt6AVwgNjVyAy37OCEyugaELfaK8tLSspLi0qLSsJCUtOeRQsKu7i72jHcyaJs4m4WDEi6RMSGxOftIBrLVbEwOPzTYUnd3lJofEmeDJH1iFZ1ZIGpCGcxCADcMG5AEXQjjZHTl4ZgKrR6YNM43ZS69jrs+vYz5Nq2N7gWtgFdVtru4uJysrbr82C48En+nphicKQw4Fm5qbwPQmcpuEnRtteTjtmdkSA6CUrCLoEoUkmG0BTzvoGegG7Pdv72y7Nj0JU51fe+PO7J1bMzemp2auTU5dvTw+OjRyYeB8PzwCfaanG4agSf+5pq66urYKBrHgAhgALiopLCjKT01PORQWCtMtzS3M9Ax0tcWv7GMOaDG9aP5paoDZ4ZqJHHMtG2nCEgmkzG3507Ct1m5NeJ5bbYfqDg11rd2a8AgLDKgw9wjjkFBxu7Q0COEEY4kEbVUynWM+aeJtEgksTwkzmX/y5A8PGzm7OpWfLJu9cwseCSYAhx4OMTU3gVYg9/nZuWEFIxxKk4BMmLGUrUgAzC4JjJYDwIbGBgdDglramienrpJnFWZuTAPAVyYnYOL3ucEBeAkJANze2cYEuKqmkg1wYXFBYXFBembakYgwb18vByd7kaU5vNOLWVekMLT+htkLADATWmaaiRMTXUjz48peS85hZC6r+k41eCuanvhxM7gHCG8nhZ4C2UR9p5oEruyfWAVhOqejkObB1rJ1zNHZlqBg9rQ6T/47NNRVVLc5ONkXFhdcF3+j8MLwIHSha+qqj0SEiSzN4ZF6AJgzK6w8QCObSaY9YRtEcs9ZYkdkE2ZuTBuJtoMudMB+//rGuiuTE+/8/W14ed2Xd7/46JN/wOtHRi4ND18cgtfZ9/SdZUbg082Np5sba+qqJQAuFQ9BF5UUFpUUZmSlRxwN9/XzcXZ1ghvCu3W1d+tqw5ABVBc560kUT7afcgSYBD02jdANZtI+ZxqGPSHqwqsMrW2tnFwc/fz3wiQbTy8PByd7mDEH7zQ0FL9FCVyNfQaRUNhI8yuyVTd7K6bDMdNsS1CYNvNJY/nDowLb1VTsHGxz8rKnr0/N3JgmANc11EYcDSf3Ockpkp0bVjagEaYNM20IjczrWybAEofPtJcGYHgEcpeWxh5vz+raqiuTEx998o/79+/f++YuvMLu408/gokcQyMXhi8OwW2z7rNd0IUm95AwgGEQKzM7I/JYhJ//Xld3F2tbKxMzYwIwqSt+v6JdSw0w9OnZ/zECOemVAWAIrfqGenYOtv6B+w6FhUYcDY+KOZaanpKcmhSXEBsVcyzkUHDggQB4MQqMIlhaW5iam8ClCPMCXoJeqFyqumO7rGwK04kfZhorrdoOVbiytba1SklLvjI5cf3mDNxG6hV/ZDQ6Nsre0U7fUA8uTLB8sGPZpaWxXU0FnkMAG1X17evEXyFS26FqZGKoZ6ALUzVVVLcRgHdpacCOoMMMabILcjrYJP70oaW1ha+fzx5vTzORKTQ9tOx2NRVN7V1ePntq6qqvTE588L/vfy1+aY74FXbfvXzjrXfevDI5MTRyYXDoPAG4o6u9pa35NGMaFmcEZgK8L8DPzcPV1t7G1NxEV18HHjwElyNXdmwPlE0RDGA20qBgYGP2mA7uIrI03xfgdzw5MScvOzs3Kysns7i0qLC4IK8gNysnMzk1KT4x7mhUZHjkkT3enhCQoRXh6VCea2/a6qOindOYuD5xRGkSEr4rzSacNmTvEgn1nWowAdDCSpSYlDA2cRkA7hvo7e3vOd3cGBsf4+TiaGCkDy3CeWg8vUToScGHVOBLpZrau5xdnfwD9wUFHzgSERYcetDTy8POwRY+hgCXP2rir65sFn+LFJ7jZV6tQJ7b1VTWK69T36kWeCCgtKwkryDXP3CfjZ013M4BG31DvYD9/o1NDRNXx1974877H773vx99+Nk/P7379Veff/HZO39/G4bce8WfRO4+2wWzoAHg+sY6mEfJCXBRSWFhcQFEYAKwmciUAAwjrD9cgOGFDLb2NsGhBzOzM0rLSgqK8smSX5gHDGdkpSenJiWlHIdKtHe0M7cwMxK/CU1XX2e3rra2+FFv9mkF6ylgOgY85tBse2IpgdDD+Un2LpGAixT1nWrmFmbRsVGjY5eu35yBV+r09J1tajmdmJTg6u4C033htCiRA/zkPApyKoHJzAZG+vBQQWd3x+3XZsevjHWd6ayurcovzIuNj3H3dIO5EPD2WTsH230BfvD2OWtbKwMjfZhcBeOXOzTU9Qx07RxsE5MSauqq+wZ6G5saMrLSg0MPOrk4kgeDDY0NAg8E1DfWXR4fnbkx/dobd+CtI8xBrCHxK4R6+3sIwM2tTfAoUl1DLdaFBleEa2D4koOtvdUh8nsAACAASURBVA0ED+gFgCOx3WCeCl0EhvAI3XqJ/9gqDBiJzef8qW+oZ2Jm7OTiGHIoOD0zDU54xaVFeQW5sGTnZmVmZ6RnpiWlHD+enBgUfMA/cJ+Xzx47B1sL8YuFjUwM4ZWCbHqZvWuMWAl9nvXO7LRz+jom8uCBbcKpc1IHkROmH5iJTCOPRYxcGobPfPeLP87Q1HI6KeW4m4crAMxTCVj+W7ZtVtuhqmega+9oFxVzrLe/5933/37366/u37//8acfTU5d7RvobW1vKS0rORoV6ezqpKG5c7eutpfPnoKi/OnrU7du32zvbEtJSw4OPeji5gwYw0zJwAMBldWnvrr35Zd3v7h1++a5wYHa+pq8gtyw8MPAMMyL9vXzqaqpvDg6cnP2xtviyRvXb87APaSJq+Mjl4ah/9zTd5Z5AQzzN2rra5gAl1WcOFFeWlxaVFxaRAAOjzwC18DQhYaxVXjMEIKwhCPB5aSECBUrIbJ/au3WVMLIgdDP/o/Zs3WsMww6PAgGLO3W1dbarQkvTNHU3kVGkrV2axqZGFrbWtk72nl6eQTs9w+PPBKfGJdXkFtUUghXHRlZ6RlZ6ZnZGVk5mRlZ6anpKQDwkYiwQ2GhQcEHfP183D3d4JLY3MLMwEifvOYfbkrBKD+7dvgVzEF5fJpzFZbPAuoQ2QyM9A+GBA2c7yef+e7pO9vc2pSemebu6WZkYqirr0O6hezSbldTgdgIb8+ALypt2rJxl5aGr59PbHxMWcWJ8Stj9765e//+/W/vf/P1t/c+/McHVyYnus92tbQ1V9dWpaan+Afuc3V38dnrnZyaNHNj+tv733x7/5tPPvt4bOJycWlRTFy0m4frbl1tDc2dMHP7088/AZuPP/0IsiqrOHEkIgyuSHX1dTQ0d3p6eeTkZY9cGh6buDw5dfXO67dv3b45NXNt4uo4PMYwfHFo+OIQTOEgI1j1jXV1DbW19TXV4pvAMI/yxL+ncEA4yS/My8hKPxoV6ee/18XN2dbeBnoKcA1M6gq6IWo7VIFq6PKQhx/gwoT4HvEZwgVzHoQsANMijWGstVsT+rTMbi28LcHU3MTW3gZaLmC/f1j44ejYqJS05Iys9KyczOzcrJy87LyCXAi5BGAIvwTgqJhj0bFRsfExMLjl6+fj4uYML08SWZrDALWegS4MmXDGZH6R1KxEglQ9NJjEWvZPtusvuAInU31DvaDgA30DvddvzgyNXIBBnebWpoysdE8vD3gpFIwpsA8KHqZjrgWMzS3MwsIP9/b3vP/he3D9+e39b768+8WXd7/45LOP33z7jYujI53dHXDf9WRlRUpacmZ2Rl5BbnVt1cTV8Y8++Qd8M+GjT/5xpqcbXtfs5bPnYEhQfWPd+x++d++bu19/e+/eN3c//McHE1fHW9tbTlZWJKUcD9jvT96bYWtvk5iUMHF1/Mu7X3z2z08//McH777/99uvzU5OXR25NAz953ODA2d6urvOdJIRrPrGOmb4BYBhAhbQCxM5MrMzomOj4B2XNnbWcCcJOqEmZsbOrk7evl5wu0RkaQ5DXAAIuVRmdgYJGuROClxCwyAF9DuoIzAbYFDYEZhf0dXXMTDSJ7nt1tU2MNK3tLawd7TzD9yXnJpUXFp0srKitKykqKSwrOIEPPNRUJQP17qZ2RmALvN/anpKSloyRODj4tejwPVwXEJs5LEIePmgl88eTy8POEFaWIlMzU2gGPy4stdyei3PIBkTbJLGMllYXUv8WUBdfZ2A/f5dZzqnr08NXxyCa8KWtuasnExvXy9wPjgQrLSkawOTq81EprHxMTM3pr/46p/w+N5Hn/zjvQ/efe2NOx/87/uffPbxnddvD41c6Ozu6OhqbxI/u1dVU1ldW3Wmpxvux/af67s5e+PTzz/5348+HL44VF1bBS/EqK6tmr1z68u7X3x178u7X3/18acf3Xn99rnBgfrGOnCbxKSE2PgY+L6Ri5tzbHzMrds3v3vvs/gbSF/e/eJv774D768bvjgEF/y0AMNgamZ2RkxcdOCBAFd3FzvxC33gaxK29jZh4YdLy0rqGmrzCnKPRkXuDwp0cXOGARogHG4XkwgMvgSdRFgF43lwSxnCg6b2roUEGOIteWLTxs7ay2dPeOSRzOyMlrbmfvErEZpbm+DhabjGIIE3MzuDLMBwemYaAJycmkQWgDk+MS42PiYmLjryWMShsNDg0INwt8nJxdHa1gpeFK4tnvIm/X8C4TwTmPcvoA7TJOGxu9b2lqmZawAwTOvPycv29fMhY/vMiMGsCnBEMlKtorrNxc25tr4G7rt+/OlHs3du3Xn99vT1qenrU397952vv7339t/eGrk03C0e+4WHB5pbm1ramlvamlvbW+CdGKebGweHzs/euTU0cqGmrrqwuKC0rKS5tWnk0vCbb79x5/Xb733w7ptvvzFzY3rgfD+8wqq2vgb6ujl52UejIqNijhUWF4xNXP78i8/EXzD7DuSPPvkHfAz58vgouQlMFYEB4KyczLiE2NDDIXDhBhg7uTiGHg4pLi26MDx4ZXKio6u9sLggPjEOTijkbhPEVXgVNjn3QYcZREhDt9FMZGptayWyNF8wgJmowFtCnV2dDoWFpmemlVWcgAZrbm0iz14CwAVF+TDgDLeRSC+a0JuSlgwLMHw8ORHojY2PiUuIjU+Mi0uIjY6NijgafjAkiEx5Izfc2b0GduzlV5hOLE16AUHFdg0BQVN7l7evV11DLdwaJS+mKCwuCNjvL7I0h6sP5pUC83ihs0fGNVTVt3v57Ok60/nO39/++NOP3v7bW5NTVy+OjoxcGp64Ov7m22988tnHf3v3nbGJy30DvRCBm1pOt3e2tXe2weO4gHRjU0NjU0Nvf09re0tNXXVpWUlZxYnK6lN1DbWd3R294hdojFwanr1za3LqKkycgu5u+cmyilPlJysrKqtPtba3DI1cGL8y9vbf3vriq39+/sVn8CDh2MTl0bFLg0Pnu8500kZg6EJn52alpCXHxEUfiQgLORQcHHrwYEhQUPCByGMROXnZLW3NfQO9nd0dtfU1pWUlZKj1YEgQTN4CJmGkBvrP0BYAMHSkNbV3GRjpw403P/+98gWYXOWywWAq8H1nd0+3o1GReQW5FafK6xvrqsSPXEKNV9VUFornmsLAVWFxQX5hHjAMfenU9BQIvwTglLRkYDgp5XhiUgIsSSnHk1KOp6QlxyfGhUcega4OfDWLWR5mmh9X9lo4TWJxienij2Ya7tnAw+gwaWni6vjQyIWevrMdXe2t7S1FJYX7gwItrET6hnpkeIZ9LDBZnQxVqu1QhacjJqeu3rp9c+LqOHw3vLe/Z3DoPATh2Tu3hi8Onenphvuuza1Nre0tcCqHBPw/3dzY1HK6ubWppq66/GQZvNqmuraqrqEWiG1qOX1xdOTi6Eh7Z1tjU0Nl9amauura+hp4o1VLW3NP39m+gd6hkQswIxrGsSanro6OXbo4OgIXwLQAE5/MyEpPSUtOTEogkQOCR3JqUkFRPpxH4NWWKWnJcQmxSSnHy0+WFRYXRMUc8/Pf6+e/d4+3p72jHRmpYYY6GBc0MTOGvmrksQgUYIjU0v8nV7MyJOA9Rm4erlExx+CKt6qmEm6XV1afqqw+VVVTCegWi4fsobJg2JkADMQCwBCQCdVAMvxMz0yDW01wHeLq7gKztbBiM6tPmjQbaaZC8CYi2/UXVtmlpQHnL/Wdau6ebuUny8YmLg+NXDjT0w3x8ER5aXDoQUtrC4kbJBKHRkawyPMnNnbW4ZFHWtqaIfoNXxyCF30MnO+fnLpKXr7V2d3R2NQAiEL/GfZLQnFza1Oj+N1UMKpUU1ddU1dd11Bb11Bb3/jdXIvGpgboe7e2tzQ2NdSInx8Cdzrd3Njb39N/ru+C+JOL16YnL46OjI5dgtgLPQI4s9ACDBEFLvGyc7MyxDdHSFDJ+PeNEnDX9My0zOyM1PSU48mJx5MT8wvzCosLsnOzIMxEx0aFHAqGO6CW1hYmZsaGxgbge1q7NU3MjD29PIJDD0bHRh1PTlTCHFd6dMFS5nz0DfXgLWSu7i5HoyJhhLm0rAS4LRe/sqSy+hScaMvFLzEpFb+CCKqJAEyue1PSklPTUzKy0gFjCLkwnpmdm5WemZaSlnw8OTE6NgouQqxtrWDGjJ6BLjkKkpYGWqYNkEl6PhCKCa6PeAL6w7t1tXX1ddR2qLp5uJaWlcATdmd6uiEAllWcCD0cAi805xnDZ/IM90sMjQ1c3V1i42MamxrgXisMjJ3p6YZpFZfHR+E0Ud9Y19RyGhhmXgZDX5rckgVoa+trautrIPw2tZyurq063dxYW19zWvwmZ4i9gHS9+FZQ15lO6GwPDp2HF1COTVwGgOGcAqWCS3HpR6HzC/Oyc7PIkpmdAdd38B9ukcB/8EBAOicvG+59ZudmQR+zoCgfSIYLaVfxu+bh6RE9A12gN+JoeFxCbExcdEpashItqLT2+oZ6nIuuvg7RDYz0zUSmcLMXCpedmwUM1zXUktPtafHjICcrKwqLCwrEr/NMz0yDcWboscDHXZNTk4Dh1PQUMEhNT8kryM0vzIO7UKnpKTFx0aGHQ3z2eju5OFpYiWCqFpkyDZ+61DPQJTeKmYhCGkMRHFf731/lgutMmDlMxhXJtkwvJ6JsCXYJ+RVsLxD/4XLL3tEuMztjdOwS9CohHhKA4Y76bq7JbZAJ7IIUA84L9o52MBUnvzDvRHkp8DZwvv+9D9595+9vXx4fZQ5ftba3AE6d3R2wwLupmsSvp6oU984g8AKip5sbK06Vw6m/TjxrCs4FwGFre0tnd0ffQO/A+f6hkQsXR0cuj4+OXxkbm7h8eXyUPEjYf66v/1xft/gxBrihBacMZiSH6+oT4lkccBupoCg/Jy8bHKygKL+opBD8LSsnExa44svISk9KOR6XEJucmgRhhgTnvILcwuICyC07Nys+MS4o+IC7pxvcMYELY+g8R8UcA4dPTEqgBphQN88EDD7D6UDfUM/U3MTGztrJxdHNwzVgvz88q3A8OTErJ7PiVDk5GTc2NVScKs8Wz4JOTk2Ce0XHkxMJwIlJCUkpx5NTkzLFw9RwtktNT8nKyczMzkhJSz4aFQkTbv3898IzX2SiJRwRXLfDf63dmszrYWaa+KVEAi4L4TlH/X9/UZ5JNTkpCBucJYox509OgGGr3braUHJ7R7uMrHTwb7g0bW5tKqs4cSgsFKYoQAQGhqHTAdmyAYaqg1o1tzCDlzb77PUOPBAQejgkOzdr5sb0W++8OX19qlf8HuamltO19TUwXaexqaFfPA8MonFza1NVTWXXmc4T5aWx8THJqUnVtVUdXe0dXe3Qu64VT7eA7nRdQ21rewvcxK6tryk/WVbXUNt9tmvk0vD4lTGyAMBD4hdxDJzvlwFgIBYohS4xXO4RsCGE5ItfBw9jMemZaTl52fmFeTAuW1CUX1hcAKPZeQW5yalJh8JCvcUfcLG1t7GwEsFX3bx9vSD2JqUc/39DOUrz5FDmzUmUgxzgxdwW4u9TOYjf3Ovu6ebu6ebnvzc2Pia/MI/cRkrPTANuk1K+mzIJCwE4PjGOMJzyf+8JJyYlQLc58EAA+baNk4ujrb2Nrb2NSPxFaZH4mzqANHT8mNAy0xghMKsMAIY0EEs8mwAM+YM+//9YeTAd2yOcgAzEt+gdnOxT01NGLg1fHh/tPtvV3NrU3NpUfrLsSESYrb2NobEB+0KDHCbpXEABmFUHJwhD8ed/4e3NR6Miz/R033n99uydWxfEzx43tzadrKyIiYv2D9wXlxDbdabz8vjowPl+6MbD6FRqesr+oMDg0IP5hXnNrU0wNNXR1X66uRHC8snKCpg4UFpWUlVTmZmdESWe3nOivPTc4MCVyYmxictXJicmro6PTVy+ODrCBBh62tJHYOgV5uRlZ4pnKGRmZ8AtLvBb6B6TGfvw4E16Zlp2bhbQXiR+nBhOWEB+Vk5m5LEI/8B9nl4eMI8QrjS9fPbExsfA5eF318AyEzjPDclT+JAPNKeRiaG5hZmF+NPs1rZWFlYiW3sbFzdnn73eXj574IGVgyFBYeGHI49FxMbHwF2iuITY2PgYuNMbExcNS8TR8Iij4eGRR8Ijj0QcDY88FnEkIiz0cEjggQA//72+fj6Q5x5vT3dPN08vD08vD3fxZ3WgUw1f0yGXxOyEhEeSn6QfDgO5ZEwIwhT4NxhDOMIAk7eOAWxkYqitowUY2znYJqUcvzA8eHF0pPtsF/SDyk+WhUcesXe0MxI/+gc1A0cEZSYMQ4IJMHwGhYx6mJqbQFTZHxRYXVt16/bN26/NDo1c6D7b1d7ZBmcK+OZYUsrx9s62c4MDLW3NMJ5cXFoUHRvl6+fj6u7iH7gPDC6Pj/b0nW1tb6lrqC0/WZaangL3GvwD94UcCg7Y7+/m4ers6hQVc6yxqQH6z9emJyenro5fGRsduzR8cQheRtl/ro8WYDIhH8aWo2Oj4hPjoDOYV5BbfrLshPgzDtB5zCvIhb4hdKSzc7MKivJJxAaMc/Kyo2OjgoIPePt6Obs62TnYmluYiSzNff184hJiM8UdzP93gAsGMLQiOQsYiL89pWega25hZm5hZir+HLuZyFRkaW4mMoX+g4WVyMHJ3s9/L3SwAVrm/5i46OjYqKiYY0fFX53y89/rs9fbZ6+3t6+Xl88e4NPV3cXZ1QkWFzdnSDi5OLqLA76nl4ebh6uD+OsbRiaGEIjY9AJ7BFpmAlbBpa+m9i59Qz0j8VcCLK0tLKxEEOFJ7AKq5c0qVf4GRvpwdaOto2VtaxUbH9N/rg+gOi2+f3OysgIeM4AHrZlDmEyMOSMwqUm4BWVobGBgpK9vqOfk4piZnXFlcgIicEdXe3tnW3Vt1dGoSHdPNxs7a5gjcDw5EZ4YjU+MCz0csi/ADz4Lampu4uTiGJcQCzeEq2urikoKjycnBoceBMLtHGztHGydXZ2sba0srS2CQw9W1VSOXxmbnLo6fX1qauYaRGN4kmHg/HddaFqAs3OzgOHU9JSjUZEHQ4IC9vsHHggICj4QExedk5cN3WMSkFPSkmPjY0IPh4QeDomKOZacmgShGC6Dgfa4hNiDIUE+e73JhJA93p6hh0OSUo7DDNOCovyFBBjuQwDJ0JZ6BrpmIlMzkampuYm5hZmJmTGQDONM5hZm8DR/WPjhqJhj0FtOTEpgdqQhGsfERfv6+ZBPadja21haW5iLv20FmZMTBPlpLv7alZ2DrYP48zkwNA1BhnPcjvgiO7Fb/AoVIxPDPd6eIYeCQw+HhIjv6fsH7vPZ6+3p5WFjZ21qbgIdbCb880lTUcpjDP1bM5GpobGBnYNtbHwMDPl0nekkAEfHRrm6u8BkLGhE6EtLA7DWbk04qcGOgGRLa4uomGODQ+fh7R/wCEFdQ21MXDR0IEXib3nbO9q5ebi6ebjCLRYnF0c41cIZ39rWytfPJzj0IHS1AF1X8ZcKLcSPo8HZEz4gerKy4uLoyOTU1es3Z6avT01OXR2buDwfgAl+5IlCGH9ydnXy9fMJCz8cnxhHOsx5BbkxcdGHwkLBH+ApndT0FDAoKMovFT/PHBsfA+cgd083JxdHb1+v4NCD0H/OyskEswUDmAwdkY81G4kf9zMTmRLSoF8N34CF72I4ONn7B+4LjzwCd8Dhji50VGBMK148azI6NsrPfy+cvAFFEzNjyN/Q2ICc+OHcAcEf+o0wluYgfjWPSPzdd056ybUfm15QtHW0XNycC4sLOrraq2urCoryM7Mz4hPjIo6G7w8KdHZ1srASwUNX84GWuS0Pk5yrmNsy09o6WjBMEno4xM9/b3RsVE/f2aGRC11nOhubGk6LP5MLD+uaW5iRDhQ7DmMRmLzGDB6vgZoUWZqHHg45Nzhwc/bG6NgluGVV31iXmJTg6+dj52ALJ3Q4yQKudg62MLQjsjQXWZrDzVJIwGiovaMdfDfY0tqCGRLMLcz2BfgVlxbBJ7xvzt64fnPm2vTk+JUxGIgeON/fN9BLG4HhKre4tAi+IRx4IMBd/AwclMHZ1Ql6jtGxUTFx0UejIoPEj7tCd8/Nw3VfgF90bFRqekq+eLgHbgvHxEVDBHb3dHPzcD0YEhSfGJeVkwmhvqiksLSsRAncl/2ftI2UCXYOoGCbw/UPuLuhsYGpuYmpuQk8eG1gpA+YAWmwFgC2c7D19vWC55OAYWYcBnqPRkWS9xJBxxVyhhygzyYR/I1MDKHfaG5hZu9oB0+uQNDGyo+BDc/Zaeto+ez17uzuuH5zputMZ3FpUU5edmp6SlxCbMih4D3enjZ21vDKQuwUQKtzUsojQv5wa4e5LwMj/ePJib3il28cT05MSUvu7e+5ODrSdaYT5khUVp+KS4j19PKAty6S+iEnNTgdwAUwGbEDkVx6wPA11MAuLQ0zkWnIoeD+c31TM9dGLg339J1t72yrqauOS4j189/r5OII3+yGG6FwPQV9BDi5m4lMYfQEEiLxeCTMzzETmUI/DlofSuvnv7e0rGTk0vC0+AHj6+LngSeujs8f4MLigoysdLh2JS9ps7S2EFma29rbOLs67fH29PLZ47PXGxIAsJOLo6eXx5GIsOPJiaQrnpmdAV1x6Et6+3qFHg5JTU+BwWrokBeVFKIAY0DKWzcyMSQLicCkLy2yNHfzcA05FBwrntscHRsVHnnkqPgdOqGHQ6BrfTQqEjoeMMIMDWlkYgjPhZBTAzsB78oj5294Vok4qESC6fTMtImZMbjyvgC/jq72qZlrza1NQO/x5EQA2NXdxVz8nhC44GQGwDnTzH0x03NuKGEAkRD6HVBgeP3Flm2b8wpy//buOxdHRwrEM897+s6OTVzuOtNZW1/T2NRQVVOZmJTg6eUBdyahWiAHsgu4pcQ+fcD5guyOeRIk1XVxdAQAbm5tyszO8PPfa2tvw+xAcXogaU3iPMyEiZkxLAZG+qbmJr5+PsWlRSOXhqdmrt26ffPW7ZuE4dGxSzAWDc8Dd4hnj8Kwdg1jRhf7PnBhcUFOXjZMLoJrV08vD2dXJxvxQ4UWViIYmrX599dPbeysITjbOdjC18nhC+MZWelwGQyfOww8EODt6+Xq7uLp5REWfjgrJ7O0rOSE+P4zDHopkSOXSHBWE48osTn5iW1CDCQSzHpnA2xhJfL08gg9HALXulExx+A1KwH7/X39fAIPBByJCAuPPAKzw5kAk/aT2B3zJxXATOdjpg3Fr8I0MNIP2O/f2d0xc2O6pa05Jy87OTUJHmqDN/eLxI+DQrhmcihzmsAjfQICIAw7w9WEs6tTYlLClcmJe9/cnbg6XlZxori0CK6B2zvbqmoq68WPxaakJXv7eokszZndGQmGsWKQ24fMStMz0PXz39vS1jw1c+3i6Ehvfw/c1M3KyfQP3AfP65ArIE6PYrYjZxr8Cmbd++z1LiopHL44NH19avbOrVu3b96cvQGfNSMA9/b3kJdCN7WcJk/zV4lfCi09wLb2NnA/Ba7ACcbWtlbWtlaAMbyyIvBAQGJSQnpmGgCckZUOQ+hePntc3V28fb0ij0XAgDZ81rRM/IztIw0wVDqwB8NO1rZW3r5eRyLC4hPj4PFAb18vGG329PLYF+B3SPy2SpiGtiAAQ6g3NDbw2et9urnx2vQkPD7GBNjNwxVG1+GxeJmhnc+GcKLR1tEyMNLX1N4FsbGgKP/zLz776t6X//vRhwPn+xubGto72yBA9Q30VokfL6msPpWcmgQAk0EEuCQh5eGhFwPY29ervrHu2vTk6NgleGQHei4B+/3tHe2gJwwMcwJMRIxe0Mmt1IKifAD49muzwPDMjekrkxOXx0dhKAumjnSd+e7T3s3i2de19f//+3SkB9jGztpa/NwfjM7CEA9ct8PIHHSwbeys/QP3xcbHwGVwUUlhZnZGxNFwuA/s4ubs6eURcTQ8vzCv4lR59b/fClJxqhwFmLMiBBSZkZY/TQA2tzCztbfx2esNL9aJiYuOOBoeHHow9HBIUPABP/+9+4MCwyOPRMUcCws/7OvnIwjAxDMkEhI9auZP6O95+eyBZ/HaO9vgnf0wdSb0cAgADKMAEoFozp8EknkmtHZrGhobwH0sCKS6+jqt7S3379//+tt7f3v3HfCS0bFL397/5ouv/jl+ZQymRhUWF8QlxHr7ellaW5A6YXak+QuGHSA8+QQfNyEA5xfmBR4IgK91wmPbczLM76L6hnqGxgaeXh55BblDIxemr0/dfm0WGL5+c4aMRV8YHhw43w+zODv+/VpZmJtJG4FJFxrG3sA3IBqZi+/rQmS2tLaAIUMCcFZOJgHY1d1lj7cnE+CqmkqIw48fwL5+PpHHIuB68mhUJAzrQbc55FBwlHiqzZGIMKEAxhyCSSwzra2jBeMlvn4+dQ21YxOXW9qaYZ4dzOUMjzzi6eUBzzDCdGLMpzl1DA9OYx4R8oF7AUYmhvCYS0tb89fiz9V//sVn8A2+qZlr/7r/7b1v7t66fbOlrRnmG6WkJR8MCYI3xUH9AMnklhLPfrFVru4upWUlV8SzowBgqLeg4APOrk6kwwIAk8hPziAkgbUXKaG+oZ6ru0tWTuaF4UF4MeVrb9y5/drszdkbUzPXYEbHkPjzSP3n+s70dMNlcFPLabh8oAWYdKHhtigUD7ppMLIDI6wiS3NvX6+jUZEpacnwyrecvOyomGOBBwJ8/Xz8/PcGhx5MTEo4UV5aVVMJfQH4vAsKMH9UZK/FKo5tCQrEVfZ/tj07Akcei0gSz6OMiYuGx/SjYo4dCgs9EhEWK56SFR55RN4AE49hJ6Cz5O3rVV1bBU+lVpwqhxdowkvPvHz2wNAahD4m/3OmMYDn3FDCwNDYQFdfB/7DecTe0a66tureN3fvfXP3088/aWxqOFFeOjRyeoBJwgAAGMFJREFU4a133nzn72/P3Jju6GqvOFVeVnGioCj//2vuyr+aOtd1/6V771n393vX/eGe2x6PrYwCCYQkCIQxQIBASAKZSEgCGckEmSCEQWQUUBwq1VYEFMRjWwcG2562p63VKqDI1e85vmuvYKjWnnN0sVjf3m6yv539Pt/7fu/wvEixgCuYMEy3SIbSA87niwRev2fp2uLi1QXkUYxNjAbD3WCfzGA5tuTK+s0AxgTyRQK704aw89rG3bWNu7fv3vri1ufYBoOUA90JkZg9PjkGKxqLWozVxkVYclVXMIDyg2ROrBx+djYvC/MnI4KEHMEXuNCxy7V2WNweV6Db7/F1ggaoqkZaJ681GPWuTmcs3jvASq+Q7x2L974xgPdDDmf+CQAGjYiktFjVrLSwYg4zq1tot1lNZqNG14IqDX2rDgDOFwmQwkFhJG6Aav+E9zuxuAKacP1+3OLMh0cOp2emZeUcRRvLK4vzJ6cn+wfjoUiQgnuIbcKPRUL/moM3BXCyecJBeOjwi6L8D48cFgjzBMI8X8D7aOuXJ6xfwfkL5/r6Y2fOzcKeBCl0/2C8JxYNRYIGo75IUogEG6576TWfYv9luQK+w2VfvLqwdG0RAB6fHIv0hOHzw0bxbQAMzMPThhzvuYsX/vL5jfXNtfXNtTtrf+9RCBMA/YHPs4Aw8jpHx0eghN9UA2czbzMATFlDeBCk6GGclpFaXFKkalYSgL1+j8lshFrSGbT+Ll9PLIoKyn5WAh0f6Ovrj/3LAIy1Z/9vWpxoQBo4NT0lMyuDntPOqA8QN7M7bSazEVVaYNsARwkXwEiNTMAh9xAZQhRGQgIATSNhQH+I8zhEPDk1PUUoztfqNWfPn1lZXQY3IgDs9rj0rboKaXkuyxUBr8V+aT7gzO8CYKAXM6fUtw+PHJ4+NfVsb/fR1i/P9nYx+PH+D1cW58cnx/oYv1x8oA8PotG1oA89fS0I2mO9OGD+yf6Ln8drt1kXWHXB+Qvnpk9NjU+ORXsjcBkkADjZqnTAAo3dLxasXAHf2mGBBgaA0R/4xs1VbIM/m/907uIFKGH4olHGiCjaG2ng/QBGsjC+N64GLpIUKtVN7Tar2+NCTZLZ2takUjRr1GZrWzgaig/0DQ0P9g/GY6yOEkvJe/QCXnOQTAO/5p+/zmXcW9DqnpJ2JDMrA15oh8sOqh1otmC428s6MzhYhrel3bxfA3PvS9hLGCDGgIB7roCflXMU0Vru32KMP4S44Azcm7QeFZcU2RwdQ8ODYxOjsXhvkDWwQwje4+tss5iQj4WivFeKYzJBT2aFJrv+lR8Om5midKnpKX/4z/8oLD6283T78faj7SdbT3Z3dveebu08/vnh/Y1767NnT8N67GNMKf4uX7NGLSoQ0pui14TbHbAZTjbPHH62vlX32fynK6vLBOCeWFSr12ClwLugbz7ZcyW8Uzqkl/XBofdzBXyztW3u4gW0+V7buIttMNIqry4vzS9cJj/WNCOXJXIP2K5wyEd6wsFwN6xoHyvEd7jsNkcHUrWpCAEmNLbxhFhsg8mblZaRWlAoVqqbUGMIAKNZqbyxvtVkcHtctHAgnhdjTDXv0TtIGOyXWpwhGU0YJLv+Tc9jGvC2Z2ZlZPOy+Hk8+JORqCyrqwl0+4eGByM94cDLIiwvK6oEH8JzmoL9ACajhfwH9LyYIdI8QEmdLxIAwMimpEcgaTj80Z+RCfzBoffhioB84GRaRmpJmURn0HpZzXqQMeN2BQMAsC/gNVvb4JvhOnITJDKZoL/p+YSPpUOg9/8++COCGf/+h397vuMCLevWzuPdvafP9nZx+P0P382cnj4xOkxhJJCqYyePr3E/gJPNkyaQMMjhZ2v1GqQ3fjx3HvEbVBSiYoEAjHsl/Dkdct8Rd4wVFmk2uQJ+m8X08dz5ldXl23dvJQAY5FjwY2EPDD/WCdZb9O0BTIIHZycUclpGqviYqEmlsLSb3R4X1gVrh0XeWF8tqwInHrji4AwnWzopgLm34Y4TcEuH3GvecozE14yj6ajvr5CWV8uqxMdEBazcr1pWZXfaYMh5OXXCHl+n2+Nye1w2R0ezRg0md15uDixhmhJNmAb0X8jZJA2M9D26jDbSwDPiqIhqknBgmcjmZVVIy/WtOo+vE2/CxygaUDIW6Pa326y19TJkRJPkJQySAeBNzyd8LA7xpDB6U9KOIDFb3aJ6trdL6hctDnb3nn77/V9nTk+DHQ58F4Fuv7pFVSQp5OXm4Nt7ewBn87JUzcpzH59dWV0mACNts7ikCGnP9KbodlyI/uoYaze6uhiMetzrztrt9c01+LE+//ImrGiwCIGya4ZRc4xPjp1gTD3JAAwnFnjasHeVlBYLxfk8lmiFLQDtgSFLXPWbmp4iPiZSKBvN1jYA2BfwmszG2npZtaxKo2sJRYIDQ/0jjGkIVvTwyPGBof73uAL67owRIgNvQ3llWVWNFPVZktLi2nqZpd0M/hFENbyMjgiJbKio1hm0aG6GrSZCcMmejnJlPzxyODU9hZebIxTnQ+eTk4YrMVC2ECboMfzGulNSJpHV1TRr1DZHR1cwEIoE8YOpAs82R0edvBYATiZ2rwTebzh5wOdDjNC8JjU95Xlx/PaTra2dx+iay/oVPXv46MGXt784NTsTH+gjthqPr7O+oQ7VeckAnGyqyeaTmZXRoJDPnj29fP0aiF2R+2UyGyWlxTzW4IrWUK49RfbRrw7wog8d/hM/j6czaM+cm11ZXQaA1zfX4Ii+cXN1ZXWZHNFnz5/h5mMNMP4teI+Qy4EXCkc0KHXgjkGlkVCcj5oK5OQnyCHMTGjg1PQUUYGwQSGHbHcFA65Op8Gor5PXKpSNONk/GIfxDG6gM+dmR8dH3qMEkdccJIPB73UecW08VWZWBi83B4mglVUVVay6UtWsNFvb4LvyBbwe1twMxjNOOt0OOIqQKQ62DVr89j8mFkIIB9heRKxmmMeY9UnguPIBqUV6EFW65IsE0upKpJv39cfgt+yJRYPhblBDQAN3BQPQwAJhHqhD6RbcQTIAvOl57mdyx3CBos6Ol5vz4ZHD6hbVA9Zoc2/v2c7T7e0nW/cf/ITGSNOnprDj6mdMrm0WU0mZBAlGJJSE5N9m4qZnplXLqsYnxxavLqD4CSXBlnZzeWUZdjT0Ern34r6XZGNcjxeNMkl1i2r61NTK6vLaxt2Ne+twRFNS9MLL0kKEgrENHh0f4SZUJgAYgR8X67DXZjEhlUjEihlzONmUAC1mQgCGTArF+aj1RRwYYlwnr0Xmvy/g9QW80d4IKOnvP/hp4976jZurvxuA9wPjt51B1TteFQr6s3KO5vCz+Xm84pKiOnlts0ZtMhtBc+VjTGIwnuk3+tOgQxw/j0flhPQWE9YanEc9GhhesAeG74G+ZapxgS8NVCGiAmFBoRh2QbvNGov3jo6PnBgdBoU3fD/QvT5WGICl2tJultXV5Ar4CXtsrvxxwfY2Y+5n0phSCJBkD3edvlUHs3n7ydbO0+3dvafrm2voijQ+OQbi5f7BeKDbr9G1FEkKDwZwsjnTHBIGqekpFdLyE6PDC4zFdub0NKjb223WCmk5CpJIovAG6cW9zgB/gnIlXm6OUt00NXNy+fq19c21jXvrG/fWEUmidI5PL1/65NIcEipnTk8jNxu5HK/UwMjVgRI2W9sAYKgQaAJY0bTj5coVpB0ANpmN8EK7PS4URVRIy2V1NQaj3u60xQf6btxc3WP/Hj568PPD++/RJ77mIEH66fA1//xXL+NqYFyMxFFebo74mKhaVtWsUWOjjwpMAANktPhtd9qQwlIkKYQNg+8On8w1w7gvHkZONi8L9eKFrH9SroAvFOcDpYXFxySlxUiLqZCW19bLlOomrV4DeoRguHtyauLK4jxojWPxXiQSDw0PBllxtr/rRRdyL+OjN5mNSPFF/Sp3GjROBoA3PZ+AEzpMTU9B82vk+qVnpqmalQDw4+1HO0+3t3Yer6wuT82cBJ1dfKCvfzDuC3i1ek2FtBwxdlRuc+GEzz9gkjQB7gB7cklp8cBQP8xXlAT3D8btTpu0uhKbSbzBBBiTBHKnQV8jBnQNjCZebo5C2Tg+OQYAb361sfnVxtrGXeRjrf7l+iKnNhgJlVMzJ8cmRg8AcFcwgJfrdDsQ/imvLBMfEwmEeQRgRIPhjqZ0aBLLfJGgvqEOFYXQ5yazsZ4RRCN06nQ7YvHe6VNTaxt3n+zuPNr65c7a7XcOwHg9UHdZLys2cliv5Bx+9vNeEkp1k8lsdLodROEHPYzFD0S76EhYzkjuaRXMYeR1iMvt/y0+JoKtLq2uhOegQlpeUiaRVldWy6pq62X1DXUKZaNS3aRuUZEV4Op0hiLBcDQU7Y2A7hAc9B5fZ1cwgE1LOBqiPRImaTDqK6Tl2NcliBodcuX7bcb0gdwBBBpcRZlZGfh6a+tlP/38Izp9bu08vv/gp6vLS9OnpqAMY/HeSE/YZDZWVlXAQYAqPzJruStjsgnT3pU7GZjcR1I/KpIU9vXH5hcuf3r5EgHY4bJXy6pEBUJsheAc4d6UwHnAgDCPAS83p0EhH5sYXVldXt9c4wIY+VgJAKZQMPxGr9TAiDJ4fJ2uTicBuIAxaZAfCwDGI4D7DTDGOihgva8t7WZXpzPQ7Xd7XG0WU5NKUSEtR6Wdpd2MPfCp2Zmry0vIIXtjAP+qCk24gLvSvM4YbHJ4VCRCIZgEMBcUiuWN9dDAUGgg+HO47CjUAJx8AS9o7/H8IKwrkhRKGDkWKVIuOOWMnahBIW9QyBXKRpQlKhkhnqpZ2axRa3QtelaEbGIkPnbGtY9ep4gPdQUDQVarGej2hyJBvAN/l4/CXTAZ3B6XzqAtrywjxwxEHz5SiD6o3rhSTuMDsEHXvM4AN8WGBY76kjLJN99+jfDv9pOtB7/8fP3GytzFCydGh+MDfZGesMGol1ZXFhYfE7HWe7TFIOS8zn2519CzwAsoPibqCgauLi8tXVvE7iM+0Odw2eHwozWXdt3c+9L4lQMCPAG4vqFudHwETqx7X29ufrUBP9atO1/+hVU1UF0h+bHGJkYB4D5WlRXpCUdYNiVW59BLzjq3x0WBTDHj0CMNDBWCLXEao3Di1irlCvh18lr4d2CvmcxGpbpJykplkU0JcRo8PjA2MXpqdub8hXPvHIAPf/Tn9My0Dw69/9//81+ZWRkFheKSMklpeUllVUVlVQU4gexOG9DrZWGkTy7NfXHrBaEhltJLn10cGTuBvEVLuxlF/2DhgX3idDtsL/szoCwRaZjNjMoDChZFEaiU0Bm0XOgifxO5nDZHh91pg+kOGIejIS8LSsfivVMzJ8cnx2LxXuDZx/wQSMYCgNEbcb/u+kcDGFKOlE/4F1LSjhQWH7t99xY6bu7uPb339ebStcUri/NgSw9FgmAaI7oSLLIEGOK+wBkuUF85Tliw/vj+/5ZXlp09f+bH+z/cuLk6e/b0MOuK4vV7VM3KgkIx7YOARmzjuWOaySsHXCXMy82pk9eOjJ14GwBTUS6SLnwBbzgaAoztThu2r8UlRRRJyjiaDrhSfRJ0EtZQUMHI6mr0rTrU9Pu7fE63w9phQZ4/0ocD3f5ITzg+0Dc8cnxsYvTk9OQ7B+CUtCPpmWlFksImlQLsZE0qhVavwU+ryQDMgJ7T1ekcPD7w8NEDRD4ebz96srszd/FCTywKbOM77We9reBCRBwPZq3daUODWWhXnUGrYYyWQC/oaXFfwnDrS95pa4cFM7E7bdDDIOkGjKO9kTPnZm/d+XLp2mJ8oA+TwQVuj6vVZJBWV8IQ5UobWZj/BABnMO5e2EQg2SstL/ny9hdIotzb27t+Y+Xs+TOfXJoDCXM4GjIY9SVlEuiTdEZbw1WGCQDmPhd3TGAmACOf4dDhPzUo5Jc+u/j9D9/B9X1yehLpOiazkev05m68AUty6pKm5d4RY1wJ8zCHn10tqxoeOY6eTK/UwNiKo08S2DnGJkZPMMZpFFpGeyMo7aB6hsmpidmzp+MDfVDCqmZlhbRcVCCkbTA4MbESZRxNxyH8iJlZGYhi6Axah8sOrY4V39phgSJBgCMY7o72RvpZOnT/YPydAzAEy+bomLt4IdobAT9Ok0qhblGBibKdNUxxuh1oYzE5NfGQNXr924/f37i5unh1IRQJ2pl96+/yxVn6KFyIKCgJMToShI6tHZY2i0nfqtPqNSbWTo6IabV6jZ4VNuE3ap7aLCaz9UVzQxtrToXYFaZBCwo4fkORIDrZzpyeRqYn7ghXOVIpsTZzRe0fAWDu59MY7n24T9IyUmEIFJcUnT1/BtVIO0+35xcu9zMSmWHGZdcTi7ZZTGQ4YF+TwTqkE0LIuc21KQixNMD1OKRoVq6AbzDqxyfHrizOX1mc/+TSHOide2JRm6MDvhx8Y/CZczXqmwI4m5dVVSMdPD5wAIAXOJEkABi5HIPHBwDgnlgUSpgy7c6cm51fuDw6PuL1e2yODp1BWyevFR8TwZOKtHxyWSE1mJ/HE4rzi0uKwEVhMOohWk63o511q4cyb9ao2ywmu9Pm9Xu6goEw66j693rghC3r736YbN+bmZXxyh/QizQo5G6Pq0mlKJK8aLVIDwnfL4gL3B4XmDVnTk/PnJ4eGh4EOBENdrDuUl6/JxjuDjNqGHj2gDQHy1m1clo3tFleNHloNRlA1gPctpoMULkm84sGpTjknjSwHlNavaZZowaVPEJcsKsjPWFY1IhXE5+gtcNSJ6/FThJfOGkSYIBkff+AQJgwSHYlV9BpjJtCi2YxYhd87Rpdy/L1aw8fPfj+h+8mpyaQVxRnjUsC3f5WkwEMVXhxCZlqCRp4/3zoDNfupeQZeWN9MNyNCNwoC8UhdQStsNptVq1e06CQg5wdLOckqxSSgXKmx0wYkN8I1fPxgb6la4t31m6/UgMDwJQRDU8eCpLgm0RmcrQ3AqnzBbzoDjEw1O/xdTpcdpPZqFA2FjNCcihhCkDy83iS0mLkSJqtbb6AtycWHRoePDE6HI6GXJ3ONkafButP3aJSt6gs7WZQySI7COgNRYL/Mg38SvTiCYXi/NLykmpZFWjByPBAJKm8sgwpo76AN8Q8wGFGDgSrA66jdpvV4bJDSyO/EplboHcFerHCWdrNZmsb9ycBxtDJwKdC2ShvrEfX5qoaqbS6Eh5CSWlxkaQQfmyQ96J7DW7qZYUWpIG9fk+7zYoqOXhWSROSwB2gwRJwS4cEDxrgv+gzEwbQWtiYYRuclXMULCL3H/y0tnE3PtAHcyPQ7e/rj6GS+bmZDdwig5prsr4RgOniwyyrXCDMa9aog+HukbEXjX8HXpLXQFjhHfQFvAgQIohF6AVo6TDhMbmHWLDwu7S8BNzuyQCc4IimokLszLlKOBQJwsgKR0Po9OtgrUOhgYskhej+UVAoLi0vqa2XQTaC4Rf9N8cmRs+cm0W/VdBioiUF0rm0rBO9Ut2kb9WZrW1OtwNUstDAMVaT9M4BGAkb1bIqFHPkCvjYK+J7z8zKEAjz6uS1yJoYGh5EURV0LLxH/q4X7b+dbgdUtL/L5+/6e9O3QLcfGtjutLXbrGbri97fMKFVzUr4nNGEpUEhp2ASOLeKS4oAUaR55IsEAmEeP4+HIAERl2EzU1Uj1eo1TrcDUwLrN22SbY4OeWO9UJyPXAgCMCmQfwKAYUXD45BxNB0PIhTnP6+hRw7Wp5cvIT6HuIhWr1EoGxH9wsOCk4BWEMIkztA6sn+Qzgj9YGv8+cNDaRmpogKhzqANR0NDw4NDw4PI10cVF1z6oUgQC9/zdDFpdaWoQIgvDfYdofeAAcXM8IfFJUU9seiVxflkAF66tpjgiMZGjBtJghIOR0PBlzVJCBPaHB2QLq1egx5A0J/IZ545Pf3Jpbn5hctL1xZXX3L6bNxbv333FrLQJqcmsA1sNRnULSpVs1Lfqms1GRBqgdXZPxifnJo4c272nQNwNi9LUlosq6sRMxc8QALc8lhlAj+PJ6ursTk6Bob6R8dHQpFgLN6LRlKIDMMnjBRL7m8YhDCb4XxWqpsaFPI6ea2srgYZGtLqSujVkjIJJsDP40G4eYxJHI5EmJ0Yw5SALxF6KVfALy0v0ehayAqAnwMABnVwg0IuFOfDn/EPAjCcQ1zzkivfqekp0P9kD2dmZaAd4d9+/P7Z3u5fv/tmaHgQqaCWdnOzRq1QNlbVSOGFzmFBdUCRVD13D0zAThgcSf1oP4ALCsU6g3ZoeHB0fAQeR6gyMJkEw91Ot8NkNjZr1PLGeljR3K0ZIqsHgxkApuyxIklhtDfyqwC+9NlFqgomciyqZyAAI8pAXmjAGPvVvv7YyNiJU7MzcxcvfHr50sLSlaVri9dvrNy68+UdVkfx1Tf37n29+d3fvv3qm3srq8sLS1cQuvN3+dosJgAYDiCztc3Goh6oxgMp3/8DjYp6S8YTZ8kAAAAASUVORK5CYII=;" vertex="1" parent="1">
          <mxGeometry x="51.87" y="840" width="106.67" height="80" as="geometry" />
        </mxCell>
        <mxCell id="YDp1JJaOg0z-zhQRBLFw-6" value="" style="shape=image;verticalLabelPosition=bottom;labelBackgroundColor=default;verticalAlign=top;aspect=fixed;imageAspect=0;image=data:image/png,iVBORw0KGgoAAAANSUhEUgAAAUAAAADwCAIAAAD+Tyo8AAAAAXNSR0IArs4c6QAAIABJREFUeAHsvQlcFte9/0/be3vb3i6397ZJ2jSbURMTTUw0Me6AIqDs+44gq4AioAi4oggossimCCjiwqrIIgKKgAugCCjirtnbNE2bJmmTmKX+f3k+6XnNf2a+w3Me5hFNHl7Pi9eZz3znzJlzvu/5njlzZsbop//9E9nfT372X1y///rpj/X6+/FP/pPr9x8//pEqvx/95w+5fj/8jx+o8vvBj4y4fkY/NOL7/cDI6IH4Gd1nfyNVaVQ1yNL70//+CRe9P/nZf+mV3v/66Y+56P3xT/5TFXr/48c/4qL3R//5Q1Xo/eF//ICL3h/8iJPeHz4g9P6ActuR0w0A64a6AWBlpPnCrwFgnc8ABoANAGsTpZVxla41AKwzknwbGgA2AGwAmOPymw8v/VsbADYAbADYADBHDeCUQZ2aDINYysNdhkEsbldTN0ZRjjtSurpHp31u1PFSAFP6SI1O8w5iUfbKuErXjhTAVJSWXv1C4b4Gpm47ae9S98aSctyR0qmj1nd9Usf7s5//VPZHASxr/LOf/5Sy59XVOkFQAFMdeMqe0qWo66ZQJwi1AOYFXt/2qp1oKGDuM52qT16drDcKSLX0kQKYApXSKVApXTdcpVtRAFM6L9i8jkLZUw7Ea0/l86DrVD2opZP1oxaoVD4GgKXQChUKVEqnAKZ0fTsQlT/pcPdZhFSrnFQ9qKWT5aTAU0s3ACzEVZqmQKV0ClRK17cDUfmTDmcAmHOSLGqYrE+1QKXyMQAshVaoUKBSOgUqpVOA8eqUA1H5UPbfVZ2qB7V0st4o8NTSDQALcZWmKVApnQKV0vXtQFT+pMMZIvCDFYGpEwEFNu8oNK+9WoNYag1uUaBSOgUqpVOAfVd13hMHbz1Q+VP5SNuFslTWqf0aUYD99y9+Jvuj7Hl1CmBK5wWVstc3wLxgU6BSutQhlBVlt/jurSUdnYj8atWAcitI1/LulzwuCjxZev/7Fz/7xa9+Lvuj7Kn8KZ0CmNIpUNXSH3TgqRMBpUtdDQrlcLz2VD761vVdTip/BV32kCl7EmAKPFlKFUQqH0qnAKZ0CmBenRdsCmBenYrMlC69WoZCgaeWTjnQg6LLUvGDHxnpu/za179uJaGOy4gCTIFV2VVUPpROgUrpvKBS9gaAlV1NN/e6f7aiHF3fJVSuVela3vJQx2UkS6MOIgUqpVOgUjoFJK9uAFjqTEKF17HuN3vK0fVdTmEd6iNNld8A8BCv/uLtKlP2VFeZ0g1daMpllfXvHcC//J9fyP54gzAVaSmdirSUzhtpKXtDBFaOD8p43P9rHxSAqRM0pVOtZiRL7y//5xcGgIE6FVF5dSrSUjpvQ1INzKvf/4gql/B7B/Cvfv1L6e8eAMwbmamIyqvzRmBeewpsClRKpwDm1XkBVsteGTP9rdU3wKrUD2tEaeuzVVomjKT0QvnFr34uZewXv/r5L//nF7Kb8EZyaea6KVSXm1enTgS8APPaU8BTupbtqrOZKg76PcyEt8Kl6ELhzYcEmAJSlt5f/fqXlD3VFdcNV+lWvKBS9gaA4TrfQ/a4DpkXMMpe7wBToFI6L8BqgU0ByatTAPPq+o7AVMNTOuVA+ta5qHiAjNWqN7Xai4zAFKiUbgAYqBsAhos/QExyFdUAsPxUahaQpZ1kZYU30lL2vJGWsjcAbABYG8gNEfjbh6UoIHl1Ckhe3QCwAeD7AuD/+d9fyf54u9BU15rSleOtdC0vqJQ9L6iUvQFgZfel+qvUVpS9Wjq1X7V0KtJSOu9+jWQpVRBHCmDWxxYlKCB5dQpIXt0AsLILUuBRW1H2aunUfnl1CkhenXe/JMC//r//kf0psC27ioq0vLqIW50XpTEcCi/wlD0v8JQ9dSKg7g9TjsJrT+XDq/M64oNiz1sPlD3VLry6kSylCqIspQoiFbEpXd9gGwCGi1COpW+dApXaL2Wvlk7tl1fnBU8tewPAD9hgGNXwlMPx2lP5qKVT4FH5U/Zq6dR+eXWqnvWtGwD+jgDM6yi8DqqWPQUelT9lr5ZO7ZdX561/tewNABsA/k9eZx2OPQUelSdlr5ZO7ZdXVwtI3nwMAH9HAFZr0IvXcXntKfCofCh7tXRqv7w6L3hq2RsANgBsiMAq1IBaQPLmo3eAqQFqwyg0dQMJOhVReXXKIagII2tPGeugU5GTyoqyV0un9sury9bbPRCNfvPQ/3H9/vc3v5b9UXeeKIB5dQp4Sh+p21Fq3aai8OYFmNdewedkfVrB/ju5irc+9W1vAPjbV4LxzgyhQKV0auIHpY8UwLIOBxQNAP/XT38sWz8jKOodYLUiMxVpKf27GoFHBGwDwKw3MYKsyu7aAPADFoEpgCldttV1EJkHf88TOlSdXjcxAGwAeIg3Y8P/vufcssPXK406ZG4A+DsCsOy1NAvLOniGlpswz/6eJLSslntmNmIA814bU9e6lP59uwY2AHxvziD3jEwtd2T024d/I/uj7i3J3kP639/8mgKSV6duL1GgUroB4J/9/Kf3YQTW0i+Z2b3BUvu9sILdJwkSYFmqFcT7DXjDiUA2JjORsX2PE7x+f4+Lp/PuWMXqKUEVzOihR34r+1NgVXYVL8BqRXIKVEqnIjalP+iRnPInyiEMum41QNWzWjpVKgPAMl+WEcJsAJhyHYMurAG1QKXyEe5LmDYAbAD4J0KHMKR1qwEKPH3rBoANABsAVqEG9A0qlb8BYAPAKrivblHru7QVBZhaOjXH3gCwAWADwCrUgFqgUvkYAJZ/Tz0brBYOXA0nfb891UQ5xHcp+t0Px0LVs1o6CfDDv3uI6yd7z+mhR34re29JQZS97YQJIQwqlsBsEOrOk6xOTSBheWqZGA7Mwm31PZpNnTiohqd0tRyOgkqt/NXKh6oHfetUe/HqRlz0Pvy7h/QK8G8e+j9ZGnUQKYApXUuehzQTQitMGwAG0mqBp1Y++gaVyp8XVMreAPC3H6AYkkwtDYTQCtMGgA0AC2GmgOTV7zuAZbvWOkRmKtJSupZ8DmkmhFaY/r4BrFaE1Hc+QqjuZZoXVMreALAhAn/7Xk64r76Bud/yv5fQCvdFAcmr33cAy457ISxzXQlTkZbShwytWhoIo64w/X2LwEJnFaYNAKM2eEGl7EcMYFlQKVEHgCnaDQALcRp+mgJy+DnrlgNVHkrXbS/D34oCktKpAMANMDVqrdbotCzDBoCpdh1SH76rKedwv4FBlYfSlY9OlbVDtpE2BiTAv3v0Ea4fL8B6Bfu3D/9GrUEvKmJTOhXJKZ3qgQu72dqkqYZUS+d1WW2cT2jDmz+vvXBf+khT9SxbToUCUG1N5U/pRlz0/u7RRx75/cOyv5ECmwKY0ikgeXUKVEp/UABW8DnDql/86ucUSFTlUPa8AFP2BoDlPzQxJM8UqJRuAJhy8QdLp4CkjoKyp4DktTcAbAD42/dywnUoRzToqAEKMF6dAphXNwBsANgA8M+1Pz3xgkrZ84JK2RsANgBsAFgFgCnAeAHmvdQyAGwA2ACwAeDfP0yNQnPp7J6T7N3g4YtsaHrIMaohDajBKkrnPbNSZ3RenYoAlK59Z1I3S2q/aum6lUr7rahyyrYvb2P96te/lM1HQTT6w+OPyv4efez3XD/qdhQXwDoYD59q5RwY81omKPIpsHl1Xp9QaHvZVbz589pTAKio8xaJy1620pRF2fx5253ahd4Blr1prCDyMsyCtpYJZVyla7XklpnpG2CqIdXSZb3NILIaUKueeQGm7A0Ay39ZhpHMyNQyYQCY+fp3MmEAWH4iF4vJhghMnWuhq+VAVD7fSepUPCiq3nh15VbWfq0hAhsi8P/vdX8q+vp3MiteUCl77RFVtjQAbADYAPAQrxYWnokoIHl1ZSy1X6t3gKnRaUrn7ULz2rOLWy0TWl76MjPea2DKntKppuV1IMpe6Kz3OE0ViUvXd5m5CqNgTLUjr64awNQ9JwpUSmcXw1om9A0wxTkjVpTgBY+yp3SqgRV8hWuVvgFQyJ+rnMrGCnsZ5irl/Wq/lmpHXt3osSf+oMrvQQGYAp66C0UBzKuLOGeLFKiUTjUw5Tpq2auSDwopRYgqvA66NHMoVPl5dapdKJ03f+YYWiZUA1h2NsgfHn+UApvSqchM6VoGambGC7BaYGvZHkOaqeUoFBu8DseVD4yljEHn3bWsPVd5ZHNQFqn6p3Tl3KRrh3QAkYEB4G8/TEGBSulqRWBRewy5yOsovPZSl1JWeIHhtVfeu3StvvOn6lMtfUgHEBkYAP6OAMzrQFLXvzeKvgHT91Hw1jOvvYjPIRcNAH/HAda3Q3/f8ucFkrIfkkwtDQwAf0cAptpb34BRDqrv/VL567s8VP6UTrULdQlG2VO6AeDvOMCUY1E6BQal8+bDa0/tl9JHKn9qvxR49x3AsveiqKFphdFparSZ0tnwspaJ+3AUmmpLqc68QeouUmMoUktlhQKD0qncZO3/9ze//s1D/yctKo5LNivZfBREVkWihMImXKtkC0mJojIIF6nBUaGNNmmjx598TPb3xFOPy/5kjR9/8jFZgJmoQLKWq6jbTpROAU/pWvLPzKgTAaVLG0Pqx/pQKN+idMqbpeVXV6HKo+5ehp8bVU5Klz1hKbzPnAKb0lUDmBdsLbllZhSolE6BSumMTC0TFKiUTsFJNQylU/lQOq/LKjgib1Zc9iO1X65C8n4lE5lTTSOrU+1O6UayYVZBpECldBaERQlGppYJClRKp0CldC25ZWYUqJQu21q/ffg3VMNQOpUPpavloLz58No/KADzHhfVLpROtTulGwD+9ssyjEwtExSolE41AK9ONTyl8zrcdxUk3npQxR6NwtvEXPZGT456QvZHBWEq0lK6KPCyRS0DLzOjIi2lU5GW0rXklplRoFI6V6soGFOg8uqqOKgOmcieIJCP7CHosAu9biJbSAVRoSlVWWUA+B5FYLXAVvAV2VWUl8gaK4h6pYIa6VEY7NF3eaj8qfqkdKrdKZ3Kh9JJgGXD8pOjnqAiLaWzkKtlgoVcUYKKtJRORVpeeyofFopFCaphtNGpRhLqCoxxXVEr56O/tRQY1B4p+5HShW0hTFPtK3KPIReFeWqTNgD87dtzKVApfciW0MZAttWVm41ydOWtpGupfPSty4KHnUoL+dAjv5W1H0FRtpAPPfJb2aZ8+HcPaeMGQhsqf0o3GjX6KdkfFYEpnbpm1jLwMjMqksuC9Ohjv//D44+ybYUJUQBni/qOwMLG0D5NNb9IRyuK3JdqWuiiHNii8lbStfoGW7pHdRVRpQ25SB2vbKlYrWrf4ryWsv7/u0cfIQGWpXrU6KfUApgCVVYHmQxCYUIIrTAttNEmTYFN6VSFUro2Dcb8QCEh60BMVNhQtIpt8j1JUEBSJHNVC6tbbVpZNxvKrx4MgIec6SVEV4F2BZIpUCmdqlBK163ZpFsxXxlmgstBvwPGFMCUznXIrC2k7aWWQvmV3gGWjag6iFJElRUFVmVXUaBSOlWhlK5WQzJfGWaCy0G/h8a81atW+1L+Q/mhAeBvPw1FVRClUxVN6Wo1MJUPr8N9D5nkOmTe+qTahVfn9R8DwAaAf8vl2Q+o8UgBqT3ADF3ZmMHWihJ6B5gandahFy27CdWRlu0nK4iytaYgiupxyEXtG1I3S14H5bV/QLllxeY9Xt1aYThbMReS9Tq2VpQwenrMKNkfNQpN6dToNKXL0qiDSAHMq1Nsy9amgiiqX7Y4nKYVbssyFCWENsK0rOMKDYRpdt9SdqsHQmTEihLCw9QmLareIRe1yVNoQ2VIuRZlTwIsS/XTY0bxAkxFYF6wqXxkQcWotezpQNb+sSf+MLIAU82jvS50DmGaou6R3z8sm7lwW2Gayud+04Vl1iYtWwm/e/QR6rioPKl89K0bjR77tOyPApjSecGmAKZApXRZSh9/8jHKXt8AU2dQ5YantpLqlENQ+aul8zq0WvvVdz5q1SeVj751A8DffpiCisC8uhQ5KFRDUva8OpU/LwBq5cO735GyV+t4qXwonbd9KXsSYNmwPHrs07wReKQiMxWBqYhNRWZKVwtsqmF4dcpR1NJHCjB975eqH2q/lD1ve/H6D2VvAPjbV4JRoFI6VaG89rwNT9nzOhZlT+mUQz/oOnW8VD1TOuUPlM7rJ1Q+JMBjnhkt/bGwLI3DVKSVWkKhroGpfKiISuVD2fNGYKk9q3rZOmVrRQlZY4W3c1KOQulqOSKVz4MOKlV+6nipeqZ0qn0pXeQeOi+OGMAUqJROAckLMJWPFFRlRecaF21IOQSvLnVE5RxkHYttIs2NV6GAud906rhYVWiZEDWrzovKXiddayQNswqKihGYAlWViE1R/eSoJ+43gAGSll6im5ksq7IeptAjoByd0u83UKnyUFWqUBWym8jWpw6iFFFlhQ9gBbZlV2HQa9Top6RY6hVgZC6LsfYAw1K5+qQtRNlLLYU3n2V9Qq+iLNW8XvvoY7+nANa3TpWf0mXLgxqWboLnzKW6giLbvvdANBr77BjZnyyQvCIitioAU8Dz6rJUqxiZKYBldSHDCs6hzSop7dpsJWsjzUoHRRYYFUWqSLJHRJ2YYCyLGZUPpctmooMo6ycK4r0AWOHmkzQyUwovqJT9/QYw2phyi/tfp0CiWKXseXXempHNH5nIYsabv2wmOogKrMqu0i/AY54ZzS6btUxQAFM6BSqlUwBTOtXlpnTZWlYQdWhjvW7C67iUvSwwOnRNqfzV0tWqTIUmHnIVysDMKNeS1UmAZfvVY58dw9uL5rJnkFO4SnUKVEqnQFVFZ1XMGmPIhFoOROUzZAGEBiyT4eNhAFhYsdqnmQtpmSABfmbcWOmPUc2FpfbGCgCzVcIEeKZYldUpUGWNFd4BJpsPq3TtG+y+stQBYLaJKEGdAkRmOi9S+VM6745Gql2YC2mZ0BFgRjJLaE+pgiWDUxpp2Sph4r4FWFj7w3EFYT5IDye3IbeVejnFA9Olm0BhBqIEZc+ri7IdcpE3/yHrSmQgbSntFdlgoKXIDTDCMuOWJRSwlF3FNhQmcM0spffpMaOE3LK0DgBTkVYVHZUu23Ki9lZelM0BIh60Em3+xFOPQ1HYUGEV25a9PBCK8iC5MhIUUaKS67xI5U/p1I5kjwLGCjUmXaUlb1Iz5niybj+kaCTtJ+umMKhECVl6FUTR5myROhIqK7ahKMHqS5Sg8heZsUVpS1CKsLGlbiRcK02L8oTBY0/8Qft8pJZC73z8ycfwYu3Hn3xszDOjH33s96NGPyXc5MlRTwiRkLq70FiYllpCEeYmTAu3FaapfIQ2+khL20JdRdSyQy4yxxMljMY9/6zsTweMhbGUpSnAeHURh2yRyocZiBIUqJQuqi+2OGSNiwx0a34qE6nLUvlLLYUKvpXzh8cfffzJx54eM+qJpx4f88xotlPgDbZ5QaLsKV1YKmGa11647XDSVH2qpbNK1jLBHE+U4AZYSjtDnUErTFCA8eoiDtkilQ8zECUoUCldVF9skap3ZiBKUPZcOvMeqWuyVaKE1JK97eDJUU+wUbonnnoc4fcPjz/6u0cfeeT3D2OW1W8f/s2jj/1eNNFFNk+RSIFH6aLN2SKvPdtwmAlRNaq+yNXuaCmRR2HR6Lnx46Q/UMrIFCb0DbAQfmGaApXSRdwOuUgBTOmytakg8jYYZU95Epc9c4gnRz3x9JhRiLoPPfJbTLl5bvy4ya9OmjFr+myTWZNfnfTc+HGPP/kYy58qgEjn5Ue0OVuk8mEGekqw49VTQsFVZFdRfigP8HPjx0lBVVaEkAvTQgiHk6ZApfQhiRUZUBUkMmOLlL1s7bNAN3xvoPxVh5xRqlGjnxo99uknRz3xu0cfMTadvSjQPypm2cr42PhVcavWJEQvj/Ly8XxlymQ2nQ5bUcVgOgUepbMNRQlee9HmOi/qUJ9cm1B+QumUvxk9P+E52Z80LENRxli6VgjzcNIU/LwAy9oDS9k6YsSKErLGTKSaQXudyxtYRJXmT+Xz2BN/wFZPPPU4uqmjRj/l5eNZULjjYE11bf3hw3U1NbWH9h3YuyEp0cpmAeoNGCNPxobsLthaLROymYi67sKsKHu1dGlNDqlw7ZrKjbmQKCFyP7ZoNP6F50U/8Pw9BJhVijAhC7zCFFHUO9U82uuUN1A5iNqbLcrmg0yeHjMKDMNmzDOjwyIWH6ypPt15qq3jRFPL0YbG+qqDlZnbMpxdnZ4ZNxbz8EaPfZoFYQAmuwshbMK0rLHCCUi4rTBN5SOrU5Wm0DNS2ESVVayBtEkwh5R6430HsDSGQ6Git/SQWKxghy1MyNoLDURpWfshAZa2Cm+ryzqigqNL9wiF2u+455/FqjHPjEYNPznqiYX+vnv3l7a2HT/W2nK0uZEB7O7pNu75Z9EJAsBg6R4AzFsPsvZUJdwDgKl2EbkZW5S1Z2ul3kh2oZ+f8JxsEKYA49UpICmd6kJTuvRQFZTRY58WMSk0lt2F0ECYZnUtSsg2jMJ7thV8TnaVbP6wlPXpMc+MhvuOeWb0M+PGjnlm9ONPPubu6VZQuKPjVPvR5sb6I3UAOCMrfVGg/0uTJiIIM4CRrWxhFMCQLYzCiYmy59KpQiqUk9pEtp4VRFXyYb4k9DSkyQj8vQJYWi9MkaVXh4c6qDamGphXl80fmcj6OrvfKwX45OmOo82NtfWH64/UVR2szMhK9w/we3nyS1KAFQopu1MFkcpKYRPtV1GZ3wOAZduFmlnIQJUmmEOKEjIA45JYdmSLolo2ViuLIxWxRcc/5OIDDTAV4eFVcOvRY5/GMT7x1ONuHq5Fuwq7znYea22prT9c11BbWV2RuS0jIGjRK1MmoxfNroGxOeWgFDMUdZT9/aZTx8urSxFVVihHJQEWjWyxRQpsXl0Zb+latYCngOTVqQqldKp5eBteLXuUB7khCD856gkXN+ddJcU9vefaOk7UNdTW1h+uOliZlZ0ZFBL42rQpz40fN/bZMRiIln3LirBs9xt4wy8POzqqKbl0yk8onfJPEuAJL46X/lTHWHvspUgrK7LAswtsqjq016mKpnSu1mU3XZnT6Jyg9jvmmdFsVHnss2OeGTd21OinnF2dCgp39PSeO9HeerCmuupgZVnFgezcbaFhIbOMZ45/4XkGMBs1oAo2fGCUc6D2q2+dqk9enfITSqc88/sF8Ljnn2UMa5mgKo6qaLV0XoegHFc2H4zYYewKM7HGPjvmyVFPODo7ZOdu6+w+03K8ubyybH/Zvr37SzO3ZYSGhRibzp7w4ngADHoZ/7K7oMqjjKV0LZWP7E4fIJHXTyg/5AN4wovjWRC+xwntYzUsZeOzcliWRZqqON4G4LXn9UVZR0cm0l2PfXbM02NG4ZoWzABgOwfbzG0Znd1njrW2AOB9B/bmbc+NjFo6x8x04ssvPjNuLOhFAGc8S0srWx4VReke740irUzdFMqvKF3WOZ8ZN1YeYGnnmSn3gFteVmXtZQFWniIqW0dUhVK6bs0p3YrXHWXZQCbSzMc8M/rpMaMwqoyBLgBsa2+Tk5fd03uu41R79aGqyuqKyuqK4t1FK+Nj51mYTXz5xXHPP4vc0OtGDJfNnyq/bDkVRCof2Z0+QCKrQOZ18Ci2qGXCiJEpSgBUkajDIhfwsigqRFSKUgVQpZvIhmUmUvWoFsCUg+pVx11fRFGMKgNgGzvrzWmply4P9PafxwjW3v2l2wvyo2KWWcw3n/DieACMzjNckConxSRlz6s/QKxKiyqll3KzIXUSYB1Yld2EC+DxLzyvwDDXKimolMJYlU0MWYMiAwpsSpe27j1QRPex2dWsk4tj6paUCwP95/t6APD+sn1FuwpXxsda2SyY8OJ4DEQjdOPAqdLyAslrT+33gdABsKy/UaLIzdii0QsTJ8j+ZGmc8OJ4WWMF8f4HGGDzVhyrQVGCApXSR8rhRo99+plxY8c9/+zzE54b/8Lzz4wb+/SYUTZ21lsz0vou9J7v66lrqK06WFleWVZSunvNutW29jYTX34Rlrh4xuZU+XmB5LWn9qtvnWpHLh0+I+tyvGHmvgOYF3jKngrXVAVRumwtK4ginodc5Gp4FY3HPDMaVQSPx3QOGzvrrOzMvgu9vf3nMQ2rrOLArpLitevXODo7vDRpIgMY9LIJ0tKCPRAgSYs9pDJkg2ppQLkQrx8aTXz5RdmfQlDlWkVFckqngOTVDQAP6YvsVvCEF8e/MmXyHDNT/wC/wuKdFwb6Lwz0NzYdqagqB8DrN6xz83Cd/OokBvC455/FQAO1FwPAyiRTAFM6BbbRS5Mmyv5kqdZB5KL9hYkTKLB5dVngGdXS6mCrRAmppbJCNQClKzez/tbiavaVKZNN55q4urv4B/hFRi1ds251SenugcGLly4PHG1uZAAnblzv6e3xypTJABg18PyE5xTuq1Ngq6Xrr2aUc6baUd865XUkwLJUvzRpIi/DDwTAImiFi1TFUTpvQyq7y/DXUuV5fsJzL0yc4OjsEJewMnVLyoakxLT0LRlZ6aX79vRf7Lt0eaCp5WhFVXl5ZVnpvj0pm5N9/XxemzaFAYwr5+fGj6NKqBaoVD7Ufqnjvf91yqOgC31SmOYGmAKb0tUCnorA1AlC1l6HUW7lah3+2pFyrOfGj5v0ystBIYH5O/IKCnekbE5OS9+Sm5+zZ2/J+b6egcGLALiiqnx/2b70zK0L/X2nzZg6/oXn0XlmAFPlpwCjgKR0Kh9qv/rWh9/iuuUghFaY1jvAFGCULguewug3ZS/bhR4SYOlWwsoSpqlmUMuBKMfl1anyjBr91AsTJwSFBO4sKqioKs/KzkxL37I1I614d1H3ua4r1y63th2vrK4AwJnbMhYF+s+YNR1T8VAP4194XiEC85aTsqfApnTqeEdKp/yEVxf6njBt9PLkl2R/VETl1dWKwBTwlK7/gDYBAAAgAElEQVQAtvD4mS9K0YUiNYbC2wC89mo5nOx+2X0gT2+PvO25NbWH8nfkpW5JSd2SUrSr8GxP983bN06e7jhYU11ZXbG/bF9GVnpA0KJZxjNRq6zSFCbMUEDqW9drvclWprJI+Q+ly+ZGGT8/4TkSYFmqdRDvQ4ApVmV1qu5kK1pFUd+OOP6F50ePfXqOmWnixvV1DbWl+/ZszUhL3Lg+Nz+n41T7jVvXz3SdPlxXgweSsrIzQ8NCTOYY43QprBMcsrS0slUBM70yLC2Jbops+XUQhXWlj7TeAdZ3xKZOELyRWSFic4GtViPp4Cuym1Dlmfjyi2OfHTN1+mtRMcsqNXOec/NzEjeuT0vfcrS58fLVwZOnOwBwRVV5bn5OWMTiOWamL02a+MLECdI8ZXctK+qGk/Zbye5UB1F6jLopss6jomg06ZWXuX68QdgAsG4Nr4PPyW5C7R23kV6aNNE/wC9/R97+sn3ZudvS0rekbE6urT985drlrrOddQ211Yeqqg5W7iwqwHToya9OemnSROTJrodl9ztSInW8aukqsiebFRVIKN1o8quTuH5ctE965WV9A0+dIHgjM2/Elq19FUW1HI7KB0NQE14cb7nAYklkxKaUpM1pqZvTUjOy0hubjtx6/Wbfhd6Gxvqa2kPVh6oKi3fGrIi2slnwypTJmI+Fu1ATXhxPvWWJ2q++wab2q5auYhPLZkWBSukGgOWngjOeqYqTrX0VxXvgcBNffnHCi+MnvfLyHDNTT2+PwOCA6OVRyambqg9V3Xr9Zv/FvqPNjTW1hw7WVBfvLopLWGljZw2ApY+Fq1Xa4eejYhPIZkX5g1o6czwtE0avTJnM9eMK15NfnaTviE1FeN7ITEVstRqGNx9Z71FFBH4oz8SXX3xp0sTnxo97ZcpkkznGLm7OK+NjS0p3X746eGGgHwDX1B4qKd2dsDrezsF2ytRXcRnMDmfIO3PDZ5IrB1WqSCETduB6SmjJLTMjI/CUqa/K/vQNJAUer04BSemsRrRMUO2n0PaqrOLyZky3kO6XMfzCxAkvTZqIkyBa1sx87oakRMzlqGuorak9hA+srFqT4OjsIAKY5SwtFVslSlBdaGkO90YRFW/IRardR0rnBvhBj8DUiUDfYKvVwEN6mDYGrDAAGAwDYGPT2WvWre4+1zV45VJj05HDdTW19YfLK8vWJa51dnUCwBNffpHNWtdmd0IbCkuhzb1Ms6rQMqHl+f2emZFdaNnwO2XqqwaAldtGSz/Q2UwV52Z7lwI8dfpry2NjznSdvnLt8rHWlobGenyfISl5o7un29TpryFc49lgHQpjAFjZf3jXcgPMdcH8ypTJ+gae6tJT18aUzhuZ1YrYvA3G2Btmgu0XB/7y5JdQk69NmxK9POp056nrN6+1dZxobDqCB4NTt6R4+XhOnzkNdxYQhFkc1r4wFPPa56CuJasHLRNUu4+UbkRFWko3AKzcVFr6gc5markvK4AI4ClTX41YGt5+su3m7RunO081tRytP1JXfagK06Fnm8x6Zcrklye/hOfSWCbal8oAsLL/8K41em3aFNkfBTCvrm/gqQhPRWZK543MakVs3gZjzGiZoNBim4sAfmXK5LCIxSfaW2+9frOz+0zzsSYAnJOXHRgcYGw6e8rUV1kQZnGY5TZkYsjyDJmDuga89U+1+0jpBoC/nYj2XQV4SHcXAfzy5JcCgwOajzXdvH3jbE/3sdYWBOHtBfmLw0PnmJm+Nm3K5FcnIQhr83y4qAAPCsAjBSTvfo2mTn9N9kdFWtlwrSBS+VA6FbGpSMtrT+VDRWaqQingqTM6lQ+vTuXPqzOuUAB2DTzhxfG+fj6NTUdu3r5xvq8H3wpuajlaWLwzfEnYPAuzYQKM/aK0rAwvTJzAFBbVeY9IXXuqXah2HymdjMAUk7K0T53+GmVPAaaWTgFJ6RSovA1ANTClq+tew8+NgSQCeNzzzy70962oKr/9xq2+C70n2ltbjjc3NNYXFO6IWBpuMd986vTXXpkyedIrL2PDIUvC4KQsRQaiRWorSheeFIRpyp5qr5HSef3wvgOYNzLzngjuN7BHylHg0MJZHKiZ58aP81noXVZx4PYbt/ov9gHgxqYjhcU7l0RGWC6wmDZjKhfAsuQI4RcRK1qU3VwHkbeeeUFSy54KMJROdqGpSDttxlTZH2VPAcmr84JK2RsAFsIjBXj8C897envs2Vty8/aNCwP9bR0njrW2HG1uLCndHb08yspmwfSZ0zAdAC5LgSFkTGiDreCO0ktoUdmkBsJsudLCMmiTVgtI3nwoUCn9vgOY6orzAk/ZqwU2VaG8DTZS9nBiduk7+dVJqJkJL47HZ75v3Lp+6fJA+8m2Y60tzcea9h3Yuzw2xsbOesas6doAzCBhB8hqjDUB+uEvT36Joci2Uj3BiqFlgpX2HieoAEPpRrLhVAeRisAUkLw6BSSvzrxHlKAqiLf9tPSPETejAH5p0kRHZ4ecvOyr16/gsf4T7a3HWluqDlauWpNg72g322TWa9OmYIqObOWIDm3SKy+jblmFvzZtCgZNWCbCSMs6BWygWxWYRaUaclH20O6BSPkhpRtNnzlNlR/FPAU2r84LPGVPAc/cS5SgKo7S70Ebq7ILeLCQLtTMy5NfsrW3ychKv3Lt8tXrV06e7jjR3nqivbWm9hC+z2BsOpsBLPu0mYgN7OKVKZOnTH0V6E6bMRUu99q0KVOmvooramzFTiuiTIa/SFUalTNlT7W7WrrI/YZcNAD87UNXVE3xNgzV8PebDseVAjz51UlWNgtSt6Rcvjp4/ea1M12n2zpOtHWcqD9StyEp0cXN2dh0NgaiUTPS40K3nOU/6ZWXUbc4pU6bMXXGrOmzjGfOMp45dfpr7HyKe8uibSm6dNCl5VRWeNtdLXvKDyndaMas6ar8qDBORWZenTdiU/ZqRWaqQtVqSH3nA/dll74IjwitlgssNqUkDV65dP3mtc7uM20dJ9pPtjU01m9KSXLzcDWZYzxtxlRETtlCisCY/OokYeydbTLL2HT2bJNZs4xnTp85DW4AkkW5IR9eVkV7Z4uizIdcZO3LjhQJpuspwc5oWia4Ab7fQKWApHSqXnjbY0gP0NKAedg9TlDFmzL11dkmsxI3rr90eeDGrevd57raT7a1n2xrbDqSkZXu7unGABbmICo861rDBgAj9s4xMzWda2IyxxgYM5JxVcxOKMgB/xUYxn5hgLSwVNqkRe3+2rQpL09+CR1+nHrY5bqwhFIvEuVzzxaN0JnR/j8VrimweXV9R2ZesKVNBUWtFtLGyfRhQ5V/ytRXZxnPXLt+zYWB/hu3rp/t6WYAZ27L8Pb1AsCYj8UKJgWYEcgiMAA2mWNsOtdE+DOZYwyMp82Yyq6KMb6FQmIvshhjv2oBPGXqq9NmTJ386qRnxo194qnHx7/w/EuTJqKb8MqUybhwQJEor7j3ugHgb5/l4K16CgBenTFwjxNUOV+bNmXGrOnxq+Lwevee3nMdp9rbT7YdbW7Mzc/xD/AznWsyfea0qdNfQ4GpfIRPkgojsLHpbMawmflcM/O5FvPNzcznzjEzNTadPWPW9GkzpiLWsRMldiRilUHLorRuFcj2AkRR1Akvjn/siT9MmzHVZI7xLOOZxqazp8+cNst4JgbhUDxRJOD1H7XsjWabzOL6UbGaisy8+khFbFF7DLmoVgMoAKDXVVT5X5s2ZfrMabFxK850ncZ06JOnO9pPtjW1HN1ekB8YHGBmPhdBiXV3ZbNC4QGVFOA5ZqZm5nPNLedZzDe3trWysllgZbNgvpWlueW8Of/uYwNmbMuuPzHqBpiFaUYvb6Uhf/SZp0x9deLLL9o52O7dX9p3obe17fjmtNTQsBAvH09rWyvTuSYzZk2Hf+IsIxxnGdJh9GRgAPjbZzl461fWa3UQeR1OLXtpUYU1EBm19Fhry+03bvX2nz/deQrTOYp3F4UvCTO3nAc/luYgVBQAnmNmOs/CzNxynpXNAhs7a0dnB0dnBycXR0dnB3tHO1t7Gxs7ayubBeaW80znmiBg4JTBbl8JAWboIsFbPwiqwHjyq5Me/t1DXj6en3/x2Rdf3fnszqevv3m7dN+eZdGRgcEBru4uKJKx6exZxjMxkqcQk4X1qb+0kbHpbK4fFa6pyMyrj1TEFp5NtUmr1SRCp7+Xaar8GBAOXxJ2tLkRzzOc6TrdfrKtte34nr0lkVFLLRdYoI2QA1VmCuDZJrNM55rMszBD7LVzsHV2dXJxc3bzcHV1d3HzcHVxc3Z2dXJ0drBzsLW2tbJcYDHPwsx0rgk62NNnTgPGrItOFUBL/bVpUzC7e/rMaShYWvqWj//x0Z0vP//67ld3797t7T+flZ0ZvTzK18/HycXRzHyu6VyT2SazcMWujavo1cYA8LdTu6lapgbVKHtKp4DR0s9UN6PKA28ODg2qrT/8+pu3+y/2AeAT7a37y/bh9e4AGEcqzYcVlQVDxDd2B9jYdPYcM1NEYDsHWycXR1d3F29fL/w8vT2AMUh2cnEEyeaW80DybJNZwBg7wrgX26m0PEMq6J/b2tsEhQRmZWdeGOj/192vv/z6i7t3/3Xny8/P9nTnbc9dGR8bGBzg6OyAK3ZcFaMGKA+BTvmDWrqRyRxj2R9XWGa3BKj4rL0+UhFbuRmka3kbYEg3uscGVPmnz5z2ypTJgcEBNbWH3nz7jQsD/We6Tnecaj/R3lpWcWB5bIyVzQIAzEabRCVnLLELVyHAU6e/Nm3GVDDMgrCjs4Oru4untwcY9vLx9PT2wH/w7OzqZOdga2NnDX7YQJpw12y/QlGYZocsFNEHtne0i4pZlpy6qbB4Z/vJNsTeO19+/tEnfz/b052bnxOXsDIoJNDLx3O+leU8CzOTOcYYyZM6hkhhO9UyIdp8yEUj0///mD5blKUat+9k2dYeUWXL7yrAVPuJnGnIReamWiaGzFBkMMt45itTJvsH+FVUlb/97luXLg+c6TqNCZXllWWxcSusba1mGc/EZbD247GivaDjajLHGNfDlgssnFwcXdycXdyc3T3dvH29fBZ6+yz09vb18vLx9PLxRDS2tbcBPwjFmMuFHjXOEdgLaoaVTTiLE60gGoJydnWKjFq6ak1CWvqWzWmpWzPS3nv/T7gM/vgfH51ob03P3Bq/Ki44NMjLx9Pe0Y5dCaMvIGKMjcKKdC0XKT+hdG6AecGWpV1BVMZbulYt4Fm9a5nQsj2YGdUAvLqUBGWFN/9ZxjOnTH3V189nf9m+t999a/DKpTNdp093njrR3lpRVb4yPtbGzhoAz5g1nUEiWwZ2ihGtZUWaMWs67iqZmc+1trWysbO2d7RzdHbAVbGruwt+bh6uuCp2dHYAw+aW83DnCQghqqOqWZFYAnsX2gBg2JtbzlscHhqzInpxeGhYxOLg0KDF4aG9/efvfPn5l19/8dmdT7vPdeXvyAPAPgu97RxsLeab4zKYASzMXOg/rPX1lzAA/O1MUmG9a5PmbRLmtcNMiGAYcpF3d7jb6eXjuauk+M2337h8dZABXHWwMmF1vL2jHcaThgSYKhsrEm6uGpvONp1rYm45z9xynuUCi/lWloDZ1t7GzsHW3tEOVGOkGml0p+dbWZqZz8WYMHr1aDjWNGxH7PEJYctiE1d3l+jlUdHLo/wD/Lx9vewd7dw8XDtOtd/95u9fn935tP9iX0np7nWJa8OXhPn6+Ti7OtnYWWO/bD6Z8PYS2wUrhl4TJMCsL61lgorMvLpCcJZdJY3JygoVsdGc2v9n7aRlQq1WZE6pZYJ3v+iXunm47iwquP3GrSvXLnd2n8EjDQdrqteuX+Ps6sTu7oj6oloWCWasYMAY7YKAjK41BrosF1hY2SywtrWyc7AVBWcXN2c7B1vLBRZsZFgWY6k4feY09kBFUEjg8tiYqJhlAUGLcKPIxs66pHQ3utCffv7P6zev1TXU5m3PjY1b4R/g5+7pZu9oh8tgNs2DTQgVnilwgFq6h85mBoC/eSyG9QkNAOMOp5OLY1Z25vWb165ev9J9rgsD0bX1h/F9BjPzucxluaAVGsO/hQo6onBlAIbgDJIRmW3tbewd7TBw7e7p5unt4erugqhoZbPAYr45etdseiZuILM+MzIHZthFUEhgbNyKsIjF3r5eNnbWc8xM3TxcM7LSe/vP37x94+1337py7XL3ua6GxvqMrHQEYRc3Z8sFFrizhZyRFfuPgDzCAM8xM+X6aRmohzQbqYhNRWZKp1CnTqUs4IgSlD2lizYfcpHKh9LxkJC9o93WjLQr1y5fv3ntbE83BqLrj9SlbE729vUyt5zHAB6yACIDRiyL3jCAjjFhKIjMuG+MmGxuOW++laWVzQJbextEY3dPNy8fT29fL3dPN2dXJ9xzsrGztlxgwe73sBO08DSNMeQZs6b7LPReHhsTHBrk7umG6Vb+AX4FhTs6u88MXrl0+epg97muk6c7mlqOFu8uWrNudVjEYl8/H0dnB5wv0IFnj1ihWtggH+taU7U9fJ2MwFz0YvrbkHBqY/CgA8wLNm8TingYcpE3fwBsY2eNJwpv3Lre03sOA9GNTUfS0rcs9Pe1mG+OG4eY7ThkGWQNWGyUrmVlRkwDgbgywpNM8yzMLBdY2NhZu7q7ePl4+vr5+Pr5LPT39fXzwcC1q7uLi5uzo7MD7jzNszDDvGsMfbH4PMt45kJ/35XxsYvDQ/0D/AKCFnl6e8TGrSjaVXjz9o0//+W9m7dvdJ/rOtbacriupqziQN723KTkjQmr46NiloUvCQsKCfT09sC8MSCASwBgTHmCujoJMDtgLRO8wFP2pnNNpKsUyFcLeOUrZ+laKjJTOm+zMSfWU4IqD0ZW51tZJm5cPzB48dbrN3v7z2Mc62hzY0ZW+qJAf8sFFhi/Ae2qlFCIsTBDFjZFoulcE4v55nYOtm4erj4LvRf6+wYELQoKCQwODQoMDgDMPgu9Pb09EJxt7W3ws7GzxqRrUO0f4BeXsHJ5bMzy2Ji09C1bM9J2FhVUVJW3HG/uv9h3YaC/+1xXW8eJw3U1B2uqK6rKS/ft2VlUkJ27LXVLyoakxJgV0YsC/X39fNilOKsZlFzqD6h5qa6bYiSlBRPNzcznzrMwk/605JmZKbAnXSVbGIg49WqPq+yIl4IoRVRZ4a1uChheXejH2qR5859tMmvGrOmWCyxWrUnov9gHgE+e7jh5uuNocyO+kCQEmArCVNkYqKIIDHu2lo0GoRfK/uNwZpvMMpljjPmYtvY2Lm7O3r5evn4+/gF+CKSBwQGBwQHCRXYz2cbOmt1wXhTon7A6vqBwR2V1RW39YXyDoqnlaPvJtraOEyc07xI60d6K78vU1B6qPlQFjPfsLdlZVJCbn5ORlZ6yOXnVmoTF4aHunm6WCyxwEQ7nwd0m4TQnXrdh9lQ76h1gBSZlVzHyhQnGsJR5StEedVgqsC27isKb1bgoQTWAyIwtUvZq6WxHogRuEVnMN49fFXe+rwfToQFwU8vR7NxtAUGL5ltZ4nxqbDpbiJwwrQ3AlI1IxyFj6BhpPOKH55nmW1naOdhiNjW7JEaPGgF5cXho+JKwJZERYRGLF/r7LvT3dfd0CwwOyMhKz9+RV7pvD77kduv1m7jg7zrb2dN7jgHc2na8qeVoQ2M9AK6pPVR1sLK8smzfgb179pYUFu/M256bnrl1/YZ1YRGLMZxmucACfWk2WM1ciF0kU/5D6aJmYotGQk6EaWnshSK00SYtS6mCKJvnAwQwbwOwlhAl1AKVyke0O7aIWyPzLMxi41Z0dp/BdOiOU+0dp9qbjzXl78gLDQuxtrViox5U/pQugpMtUvYomGgtAJ5jZmqieT2Amfnc+VaWGKa2trViI9U+C70RlhcF+oeGhYSGhfgH+C309w0MDlizbvXe/aXvf/Dnz7/47Muvv/jX3a8//sdHOFud7+vBawzaOk7gyzJHmxvrj9TV1B46WFN9sKa6srqirOLA/rJ9+w7s3bu/tHh3Ud723OzcbesS12IwzM7BFnPFMGdL2Hl88ACWBVIHUYF52VVUZKb0kYrYagHPCNQyQe0X+hwz05gV0R2n2gEwHgluOd5cULgjLGIxZjJgtELL3TEzEYpDLmJDkRkKiXMNkBA2n+lcE1wAWv57Woit5gIYA9c2dtYBQYs2p6V2ne3E4wqf3fn07t1/ffr5P3Gw5/t62GsMTmheqXu0ubGhsb62/jAYrjpYWVZxYN+Bvfjt3V9aUrq7aFdh5raMhNXxoWEh7p5uVjYL5lmYscDDise60ywma5mg2suIirSUrgN7qmwiS6mCSIFK6ayKtUxoWe/MjGoASmcer6cEtV/cejWZY7wkMqL5WNPtN25dGOg/eboDn2jYVVK8LDoSMxkwVsJbPBGKQy4if1yZg1VhyTGezBR0XFkTC5sS8x9N5hjPt7JcFh1ZXln2+pu32UMLePoXU0f7LvSe7enu0LyHpLXtePOxpobG+vojdbX1hw/X1aALjQi8d3/p3v2lpfv2lJTuLindvb0gP2VzcvTyqIX+vs6uTmxYSxiBdQZYeCzCtJG5Zgqb9D8FsHBEHmQKLaWsCtdqk5bmoJuiwLbsKtbqWiaElahNmpGsZYI5pZ4SCsWYY2Y622RW+JKwhsb622/cGhi8iLnQeCQ4enmUk4ujuebVGfMszNQCWDkfVgmzjGcizcBGAjeccFCsBVm7MMXMfO5Cf9+tGWkdp9oHr1z6x6ef3L37ry++uoPnB//y1/fZa8BOd57qONUuBLiuoRYMVx+qKq8s21+2jwGMMa3tBfmb01JxV9nT20N4ocFKwh4HEirapNkhiBIkwFKkoShDKIVN2V66VpqDboospQqiqF7YonQTtkqbetfZhgKMufIwE1T+xqazzcznzjKeGRoWUlN7iAHc2nYcjwSvjI91dnXCWCtuCMtmRRWPApWyh84CF6ZMsEUkhIu4KkYbscrH44fGprPnW1mGLwnbX7bvTNfpt9558+1333r3T+/8+S/vvf/Bn9/549u3Xr+J+0aYvIHXGLAIDIAxlCUFeFdJcfHuooys9JXxscGhQT4LvR2dHSwXWMB/hD6D6mJl0zLBchAlVAZYCiSlyJ4gYCxLLJUPpctmoiBKQaUUVoOyVc/WihKyxgqiLBUqitSuGcBBIYHVh6puv3Hr0uWB052nAHBZxYG4hJUMYHPLeQr5yJaWAlXWmIkscEERLTJRSK+w42o612S+laWx6WxrW6vYuBWH62oGr1y6/cat997/01vvvPnOH99+8+03bty6fv3mNbxC6HTnKVz2y0Zgdg2MCLxnb0lJ6e5dJcUlpbszt2XEr4oLDA7w9fNx//esaXRaRSSL3GPIRcobuQGWBY8S52lefYR3KVCkaalbzDeHpcV8c7xmBbcBsQuL+eYWmnmwGDnA+ApWsfxBL1URVA3y2lP58Oq8YDBf1zKhkD+eVQgMDthftu/W6zfxSPCx1hY8URi/Ks7JxZE1h0I+WpZEwUyYOTMDpWwVrnvZojAhrHO89dLa1ip6eVRj05FLlwcw1fn1N2/fvH3jyrXLg1cuDQxePN/X09l9puNUOx6BPtbagntIrP9cWV1RUVWOQSxcAAPg4t1FhcU7s7IzV61JwHRLFzdna1sreCbzPVYkyq94ddUARkFF/xnYjCKWYKu4EpYLLEAvWhGTcjFRFncF2cmCTURBghGOyXTSamI1K0pILaGIzO7ZotBBh5OmCoyKnWU8c1Gg/979pTdv38AjwQzghNXxTi6OaAVWmdLcqLIxDrVJIBNhLJUqIoClJWFz+4xNZ9s52K6Mj60/UjcweJE9q3Dl2mUAfGGgHxO/T57uwEtIZAEuryyTAly0q7BoV2F27ra169eELwlb6O/r6u6CWdnCumKFofyKV39gABb2QzD2aDrXxHKBhbWtFR4ftbGzxgtKMZEdJMPDcF9Bof/MHFH76pN1lHsgUmDw6lRRcTbEJOGiXYX4RuGZrtPoQldWV6xdv8bV3QVvxmDVK82NKg9olDIptGdsQ2T3nEV7YZsIcxPaiFoTXejo5VEHa6ovDPS/+6d38PK6z+58+uFHf8PrR7rPdXWd7cR9YNwEZhH4cF3N4bqayuoKEcAlmiHo4t1FxbuLcvKy129YtyQyYlGgv7unm52DLW5QY8gA1aWDs4kORLhoJIqZqi9SAZZ3Rxj2nGNmihcp2TvaeXp7+Af4RUYtxSSb0LCQhf6+mDGHF5Taad6iBFdjkZ9KKOMtXSusxHuZFjrocNJUmU3mGONpQZ+F3tsL8i9fHbxy7TIDuPpQ1foN69h9TuFZVZQhVTbQiCd4hTaMRuH1rRBg5M82EdprAzAOap6F2eLw0Iqq8gsD/R9+9Le7d++yIei/f/wh5o12dp/pOtuJ22Ytx5sBMLuHRAGMQazc/JzEjesjo5YGBgd4ens4OjswgFldSX1pOIoROqXD/08BqRbAVjYL8ACKz0LvqJhlq9YkrN+wLil5Y1Z2ZkZWeuqWlKTkjfGr4mJWROPFKBhFcPd0c3JxxNtJcZGM8kgx5q1Ekb/es0XmwcNMUAXGHGOTOcae3h6Z2zIuDPRfvX4Ft5FOaD4yuiklydfPx8bOGmMQVD5U8eZZmM02mWVmPtfKZgFsjE1n4/MrJnOM7R3trG2tMFVzlvFMBjCbFIEOM3bKdsFOB1OnvzZ95jR3T7clkRGLw0OdXZ3Q9Gjc2SazzC3nhUUsrqyuuDDQ/5e/vv+l5qU5mrvB37x84+1337ow0N/ZfeZ05ykGMKZhHdbcAcY0LNkILAR4WXRkUEigt6+Xk4sj3lnPhgzYlZ3UA3VT9A4wBTbvKQPu4urusiw6cmtG2vaC/PwdeXnbc3eVFBftKiwo3JG3PTcjK31zWuqGpMR1iWsXh4ciIKMV8XQoG1STnpyitooAACAASURBVFZ4q48XeFXsGS3Md3VOsKxECbzdxnSuiZuHa1r6lt7+8wC4TTO5/3BdTcrmZP8AP1t7G7QIdVyibNkielJm5nMRaadOf83cct6iQP+omGWxcSvWrl8Tl7AyNCzEZ6E3ns7F5Q8umqZpPp40dfprM2ZNZxeTKDDuXb8yZbLpXJOYFdElpbsLCndExSzz8vHE7Rzs18bOOnp5VE3tof6Lfa+/efv9D/781w8/+OSfH9/58vN/fPrJu396B0PuJzSPMbQcb24+1tTYdKT+SB2eRlIAuHh3UdGuQkRgBrCzqxMDmF3T8Xqasj03wOgSCP8zFClWZXW2lZYJPMzt7esVl7AyNz+npHR3YfFO9ttZVACGc/KyM7LS0zO3ohJ9/Xxc3JztHe3w0OZ8K0tcIUuLJEVaWaGqlXJoBXt0rqgNRTojYZgJUbZsERcppnNNXNycN6Uk9fSeu3r9Cl6p09p2vLb+cFr6lsDgAEz3xWmRbStMyBaPnW4wH8PW3gYPFTS1HL31+s2+C73Nx5oqqsp3FhWkbE4ODg3CXAg8/euz0HtZdCTePufp7WFrb4PJVZgQNsfM1NrWymehd1r6lsrqiraOEzW1h3LysuMSVvoH+LEHg+0cbGNWRB+sqT7f13Pl2uXX37yNt44IB7E6Na8QOtHeygCua6gFwNWHqqguNFwR18D4koO3rxeCB3oBcCfKDXTWjYQoDietJYdCM9HuMHNVJLJFfIPDP8AvflVcdu42nPB2lRQXFO7AL39HXm5+TnbutvTMrVsz0mLjVkTFLAuLWOyz0NtN81pDe0c7vFJQSq+wd63MLVurc43Lbih0faSVzWTx4BKle4Qyx8wU0w+cXZ0SN67vPteFz3y3az7OUFt/OD1za1BIIACWLSREKv/pM6eZzDG2trXy9fNJSt54or31vff/dOfLz+/evfv3jz8cGLzY1nGiobG+pHT3hqTERYH+eFAhLGJxYfHOy1cHb9y63th0JHNbRlzCyoCgRcDYZI6xxXzzmBXRZRUHPv/is8/ufHrj1vWTpzuqDlYWFO5Ys241GMbTDksiI8ory872dF+/ee2dP7598/aNq9ev4B5S/8W+7nNd6D+3th0XXgBj/kbVwUohwKX79uzZW7KrpHhXSTEDeF3iWlwDowuNsVU8ZoggzFyIJaTuhzpkBlTCYr45N8DoEgj/M8aEcLK0LC0Q2XAxjC3mm+NJa1zuwgaDVb5+PqFhIdHLo9Ylrt2cllpQuKN4dxGuOnLysnPysnPzc/K25+bkZWdlZwLgtevXrFqTEBu3YklkRHBoEC6JXdycbe1trG2tUJW4pYxRfqqOKJ1yUMqnZfPR08AGVTYtdUQ2W3ublfGxHafa2We+W9uO1zXUZuduCw4Nsne0w+eLUJPSo55tMos9WI5jx1ss51mYLYmMSNmcXLpvT9+F3i++unP37t2v73715ddffPC3v1wY6G853lx/pK6iqjwrOzMqZllgcEDE0vCMrPQr1y5/fferr+9+9dEnf+/tP7+rpDg5dVNQSCDeTYmZ2x//4yPY/P3jD5FV6b49a9evwRWplc0CM/O5oWEh2wvyu8919fafHxi8ePuNWzduXR+8cqn/Yl9P7zmMQned7cQUDjaCdbCmuvpQVdXBygrNTWDMo9zz7ykcCCc7iwpy8rI3JCVGRi0NCFrk7euFngJ7WReaG90QkznGoBpdHjz8wG55Mm9hFYsPWWATdkU9kgCjXwT4WbcWAxhOLo7evl5ouejlUWvWrd6UkpS5LSMnLztve27+jrztBfkFhTsQchnACL8M4KTkjZtSklI2J2Nwa0lkREDQIrzs39XdBQPUuAU138pS4SxDrWI1q2WCNYkwwbbVEq17Y2Yx33yOmamNnXVs3Iq2jhNXr1/p7D6DQZ26htqcvOzQsBC8FEo0VYYdDh6mE67FXXoXN+c161afaG99/4M/4/rz67tffXbn08/ufPrRJ39/6503z/Z0N7UcbWw6UtdQu79sX+a2jNz8nILCHRVV5f0X+z786G94/ODDj/52rLUFr2sOi1i8Mj72YE31+x/8+Yuv7nz59RdffHXng7/9pf9iX0Nj/f6yfemZW6OXR7H3Znj7eqWlb+m/2PfZnU8/+efHH/ztL++9/6dbr98cGLzYfa4L/eeTpzuOtbY0H2tiI1gHa6qF4RcAYwIW6MVEjtz8nE0pSXjHpZePJ+4kwb0dnR0WBfqHLwnD7RJXdxcMcSF6sUtlYTRmV3zsTgoIx1OK6HeoEIGxbxaHtUxgSBlvDMX9W7wqwdfPJypmWUZW+q6S4v1l+0pKdxfvLirdt6dU88xHYfFOXOvm5ucAXeH/rOzMzG0ZiMBbM9LSM7fiejh1S0rixvV4+WBYxOLQsBCcIN08XJ1cHG3tbXCOpFiV1YXOqk1ayC1Lsw21J5Ntor+EheaDvVY2C6KXRzUfa7p8dbDrbCeuCeuP1OVtzw1fEgbnw/dB2eEIEzhBg2FMrnZ2dUrZnHzl2uVPP//n3bt3P/38nx9+9Lc//+W919+8/Ze/vv/RJ3+//catzu4zTS1HjzY31mqe3SuvLKuoKj/W2oIJFe0n267fvPbxPz7664cfdJ3trKgqxwsxKqrKb96+8dmdTz//4rM7X37+948/vP3GrZOnOw7WVMNt0tK3pGxOxveNAoIWpWxOvnHr+jfvfdZ8A+mzO5/+8b138f66rrOduODnBRiDqbn5Ocmpm2JWRAcGB/hoXuiDl9F7+3qtWbe6pHR39aGqgsIdG5ISl8fGBAQtwgANCGcv+gHDqDp0ErEK43m4pcx64yMGMD4tCfgxE8PT2yM4NGhd4trc/Jz6I3Xtmtea1DXUlmkensY1Bgu8ufk57AeGs3O3AeCMrHT2A8yb01JTNicnp25K3Lh+1ZqEuISVuNvkH+Dn6e3h5OJo72hnqZnjpf1/obMOJ60/DnXOGT00PHbX0Fg/eOUSAMabZbYX5C+JjGBj+8KIIawHNtEVp4NZxjMDghZVHazEfde/f/zhzds3br9x6/LVwctXB//43rtffv3FO398u/tcV4tm7Lf+SF1dQ21dQ239kbr6I3UNjfWNTUcOa6ZSnO48dfP2jc7uM5XVFUW7CktKd9c11Haf63rrnTdvv3Hrz39576133rxy7XLHqXa8wqrqYCX6utsL8jckJSYlbyzaVdjbf/4fn36i+YLZNyB/+NHf8DHk83097CYwVwQGwHnbc1O3pCSsjseFGzD2D/BLWB2/q6T4TNfpCwP9R5sbi3YVbk5LxQmF3W1CXMVIkPCyTsgwJkFY21o5uzp5al6pOzIA42vO6Luyr9ThBUXZudtK9+1Bg9U11GLi+P6yfQC4sHgnBpxxG4n1ohm9mdsy8APDWzPSQG/K5uTULSmb01JTt6RsSklav2HdyvhYNuWN3XCXdh9kw68OotC5hWmdMdPfhggI5pbzwpeEVR+qwq1R9maZol2F0cujXN1dcL0jvAYWHhc6e3ils7nlPGPT2WERi5uPNb37p3f+/vGH7/zx7YHBi2d7urvPdfVf7HvrnTc/+uTvf3zv3d7+820dJxCBa+sPNzYdaWw6gsdxgXRN7aGa2kMn2lsbGusrqytKSneX7ttTVnGg+lBVU8vRE+2trW3Hu8913bx9Y2DwIiZOobu7d3/pvgN795ftK6s40NBY39l9pu9C7zt/fPvTz//5j08/ef+DP9+4db23/3xP77nTnaeajzXxRmB0ofN35GVuy0hO3bR2/Zr4VXFxCStXxsfGxq1I3Lh+e0F+/ZG6to4TTS1Hqw5WlpTuZkOtK+NjMXkLTGKkBv1ntAUb30VYtrW3wY23yKil+gWYgSoCg+kon7WtlaOzQ2hYSFLyxoLCHfsO7D1YU12ueeQSNV5eWVakmWuKgauiXYU7iwrAMPrSWdmZCL8M4MxtGWA4PXNrWvoW/NIzt6Znbs3clrE5LXVd4lp0ddw8XEcQYKHT3w9pdH3xMDomLfVf7OvsPtPadvyo5sUUxbuLlsfGuHm42thZYxwLXiUqPJugjpOdyRxjPB0xMHjxxq3r/Rf78N3wE+2tpztPIQjfvH2j62znsdYW3Heta6htaKzHqRwJ/D9cV1Nbf7iuobayumLv/lK82qaiqrz6UBWIra0/fLan+2xPd2PTkZraQ2UVByqrK6oOVh6sqa6pPVR/pK617Xhbx4nO7jOYEY1xrIHBiz295872dOMCmBdg5pM5edmZ2zLS0rewyIHgkZGVXli8E+cRvNoyc1tG6paU9Myte/eXFu0qTEreGBm1NDJq6eLwUF8/HzZSI+wVYlzQ0dkhLGLxusS1iRvXGwnHk/WUxliR8D+7bMY1MF5iFBwalJS8EVe85ZVlmO9SVnGgrOJAeWUZ0N2lGbJHZWHYmQEMYgEwAjKjGiRjMTt3G2414TokMDgAs7WoYxdWn25pFq5FLn5/Ls6zMMPZ1nSuSXBo0N79pb395zu7zxxrbUE83LO3JC5hpbunm+gGCa6H2cGCanSk0SH08vFcl7i2/kgdol/X2U686KPjVPvA4EX28q2mlqM1tYeAKPrP2C8LxXUNtTWa11NhVKmyuqKyuqL6UBVeGQlK0ffGm+gqNc8PwZ0O19WcaG9tP9l2puv0ydMdly4PnO3p7uk9h9iLHgHOLLwAI6LgEi9/R16O5uYICyo5/75RAnfNzt2Wm5+TlZ25NSMNL7It2lWYvyMPYWZTSlL8qjjcAXX3dMO3zuF7FvPNEeriElZuSknampHGDbCQQ2GaAoA9aWBjZy384Zs3QBdTlwODAzYkJWKEuaR0N7jdq3llSZnmMhjvENv771cQoZoYwOy6N3NbRlZ2Zk5eNjBGyMV4Zv6OvOzcbZnbMrZmpG1KScJFiKe3B2bMYCwNvQOk52smfujGLbo9bNxfeK0IL9cNYEaInhIA2Mpmgckc46CQwJLS3XjC7lhrCwJg6b49Cavj2QvN0YeSFkbIMwC2c7ANDA5I2ZxcU3sI91oxMHastQXTKs739eA0cbCmurb+MBgWXgajL81uyQLaqoOVVQcrEX5r6w9XVJUfrqupOlhZW38YE6eqDlbW1B6qa6g9qLkV1HysCZ3t052n8NzC+b4eAIxzCkqFS3HtR6F3FhXk78hjv9z8HFzf4T9ukeA/PBBIby/Iz9Hc+8zfkYc+ZmHxTpCMC+nA4AAvH088PcI6qus3rEvdkpKcuilzW4aREEJ9pIXQCtPsHYI2dtZ4tS9u9qJw+TvywHD1oSp2uj2sGcPYX7avaFchXueZnbsN48zoseDjrhlZ6WA4KzsTBlnZmQWFO3YWFeAuVFZ2ZnLqpoTV8RFLw/0D/Nw8XHFXk13UoWz4kiVFr9RlocBxQa+1rRWuVDFzmI0rsm2FXs5E3RJUOSlddi/snIL7Fr5+Prn5OT2959CrRDxkAOOOOs5xotyQD0QUAFHdymaBr58PpuLsLCrYs7cEvHWcav/zX95790/vnO/rEQ5fNTTWA6emlqP44d1UtZrXU5VpemcIvED0cF3NvgN7cepHfMa5ABw2NNY3tRxt6zjRcaq9s/vM2Z7u8309fRd6e/vPn+/75k2UCMvtJ9vaT7a1aB5jwA0tnDKEkRzX1Xs0szhwG6mweOf2gnw4WGHxzuLdRfC3vO25+OGKLycvOz1za+qWlIysdIQZkJy3PbegcEfRrkLklr8jb3NaamzciuDQINwxwYUxOs9JyRvh8GnpW0YeYIRoJxdHLx9P/wC/oJDA6OVReFZha0Za3vbcfQf2spNxTe2hfQf2YhZ0RlY67hVtzUhjAKelb8Hdo1zNMDXOdlnZmXnbc3PzczK3ZWxISsSE28iopXjmCxMt51tZ2mreXQiPxLkMHIou4LFIgYE7UnjO0ebfX5QXUi309fsNYAYbSu7r55OTlw3/xqVpXUNt6b49q9YkYIoCTnmsn8IOTQHg+VaWLm7OC/19g0ICI5aGx6yITlgdn78j78q1y2+/+9blq4MnNC9Sr60/XHWwEtN1amoPtWvmgSEa1zXUlleWNR9r2rO3JGVzckZWekVV+dHmxqPNjehdV2mmWxys+eYVsNWHqhoa63ETu+pg5d79pdWHqlqON3ef6+q70Mt+ALiz+wyeBNYBYBALSncWFRTtKsTlHgMbIWSn5nXwGIvJzt22vSB/Z1EBxmULi3diK8ztz8hKX7UmIVzzARdvXy83D1c7zfcZw5eEIfamZ279f0M5RsKoeC/T7A4wduro7ODi5uzm4YrWDQwOCA4NCg4NioxamrI5eWdRAbuNlJ27DdymZ34zZRI/BvDmtFTGsOiecFr6FnSbY1ZEs2/b4Kuw3r5eru4ubh6urppP3dk52CL8YgI2F8AYWgfASOM2AJybkQxU7jeALeab4wRkq7k3vtDfNys7s/tc1/m+npbjzXWa+zp795euXb/G29fLzsGWXXSw0xk7THZo7KQwX/NdMpwTbeys7TTf/nVycfRZ6L0hKfFYa8vtN27dvH3jjObZY0zkSE7dFBWzLHVLSvOxpvN9PR2n2tGNx+hUVnbm8tiYuISVO4sK6hpqMTR1tLnxcF0NwjJuXhQU7igp3V1eWZabn5Okmd6zZ2/JydMdFwb6e/vPXxjo77/Y19t//mxPtxBg9LS1j8DoFW4vyM/VzFDIzc/BLS74LbrHABUBOSMrPTt3W/6OPNBerHmcGCcskJ+3PTdx4/qomGWhYSGYR4jrzbCIxSmbk3F5+M018L2EVrgv0bUxmtPe0Q4Yu3u6eXp7uHm4evt6BQQtilgaHhaxGA+srIyPXbNudeLG9Smbk3GXKHVLSsrmZNzpTU7dhN/6DevWb1i3LnHtusS16zesS9y4fu36NQmr42NWREdGLV0SGYE8F4eHBocGhYaFhIaFBP/7szo4j4Bh6tpelmr0vXFZiIFcNiaEMAX/xra42Gauf48TKIn0P26JA2Ofhd7pmVvPdJ0+29PdcrwZ/aC9+0vXJa719fOx1zz6h/rBEeEQGMNIiABGfwe+iI8JOjo7LI+Nqagqv3Hr+q3Xb3Z2n2k53tzYdARnikWB/oHBAemZWxubjpw83VF/pK5KM568q6R4U0rSksiIwOCAqJhlMDjf19Padryhsb76UNXe/aVZ2Zm41xAVsyx+VVz08qigkMBFgf5JyRtrag+h/3zp8sDA4MW+C709vee6znbiZZTtJ9t4AS7QzMnHbSTcqtyclorOYEHhjr37S/doPuOAzmNB4Q70DdGRzt+RV1i8k0VsYLy9IH9TSlJs3IrwJWGLAv19Fnq7uDm7urssiYxI3ZKSq+lg/r8DHDGAcenLkEb31drWysXN2cXN2cnF0dnVydnVCSER/Qc3D9eF/r6RUUvRwQa0wv/JqZs2pSQlJW/coPnqVGTU0oil4RFLw8OXhOEh4cDggMDggEWB/vgFBC1Cwj/ALzg0KEjzaaygkEB8fcNO8z4AFmREJFMAA0tc+ppbzrOxs7bXfM/W3dMNER6fpVZlkEwfzOO0hQdoPL09UjYnt59sA1S4f7O/bB8eM8CD1rjWkGJMRWBY4hYUejo2dtb+AX65+TkXBvoRgY82NzY2HamoKt+QlBgcGuTl47ko0H/VmoStGWl4YnRzWmrC6vhl0ZGhYSGYiuMf4Je6JQU3hCuqyot3F23NSItLWAnCfRZ6+yz0XhTo76n51llcwsryyrK+C70DgxcvXx0cvHIJ0RhPMnScatcB4PwdeWA4KztzQ1LiyvjY6OVRMSuiY+NWJKdu2l6Qj+4xC8iZ2zJSNicnrI5PWB2flLwxIysdoRiXwaA9dUvKyvjYiKXhgZp5Xf4BfovDQxNWx6dnbsUM08LinSMJMO5DgGS0JaaYOLs6Obk4urg5Ozo7gGSMM7m4OeNp/jXrViclb0RvOU3zRTnWkUY0Tk7dtCQygn1Kw1vz/VgXN2ecFJxcHNkJAvvC7hDwF2o+n8NmaFEDeyKehYvzrSzNLefZO9otDg+NXxWXsDo+XnNPPypmWcTS8NCwEC8fTycXR3SwqRMBr64WzPOtLG3srJ1dnewcbH0WeqdsTsaQT/OxJgbwppSkwOAATMZCI7LzEToalppvfMlGYIv55jipYUcg2d3TLSl54+nOU3j7Bx4hqD5UlZy6CR1IV3cXd083Xz+foJDAoJBA3GLxD/DDqRZnfE9vjyWREXEJK9HVArqBmi8VumkeR3PVfHPUy8dzZXzs/rJ9Z3u6BwYvXr1+5fLVwYHBi73954cDMMOPPVGI8adFgf5LIiPWrFu9OS2VdZgLCnckp25atSYB/oCndLKyM2FQWLyzpPSb55lTNifjHBQcGuQf4Be+JCwuYSX6z3nbc2E2YgCjK4UrYVyd22se93N2dWKkoV/t6Ozg6u6C72Is9PeNilm2LnEt7oDjji46KhjT2qyZNbkpJSkyailO3rhLhDtVdg62+Nna2yD4I/LjqTTLBRaOzg7evl6YYokziA4A42mqgKBFRbsKjzY3VlSVFxbvzM3P2ZyWun7DuuWxMYsC/d08XGHGCyplzwuwQj4YJklYHR8ZtXRTSlJr2/HO7jPNx5pqag/hM7l4WNfFzZl1oKRxmIrA7DVmmIEH8l3dXRJWx5883XH95rWe3nO4ZXWwpjotfcuSyAifhd44w7q4Obt7ugFXn4XeGNpxdXeBe9g52CKB0VBfPx8vH0+fhd7u//72NxrUxc15WXTkrpJifML7+s1rV69fuXR5oE/zQYYzXac7TrW3dZzg7ULjKndXSTG+IRyzIjpY8wwcyrAo0B89x00pScmpmzYkJcZqHndFdy8oJHBZdOSmlKSs7MydmuEe3BZOTt2ECIzu4cr42M1pqRivxgN5JaW7VQOYkSBKsDYWJXD9g8Bl52CLqIgHr23tbYSkYS0A9lnoHb4kDM8ngWFhHAa9G5IS2XuJ0HF1cnF0dHZADugYA2AUFacJPMzo7OqEL83iKWK8WFBUcixSYOOOlOUCi4il4U0tR69ev9J8rGlXSfH2gvys7MzULSnxq+IWh4d6+XjilYXC0D2cNC/A2BcGloT7tbW32ZqRdqK99XBdzdaMtMxtGSfaW8/2dDcfa8IcibKKA6lbUkLDQkSVw641cGqgAGa32RGBLRdYzLMwc3Z1il8V136ybfDKpe5zXa1txxubjlRWV6RuSYmMWuof4Id7obgRiusp9BFwcnd2dcLoCRKumvFIzM9xdnVCPw6tj7aLjFpaUrq7+1zXZc0Dxlc1zwP3X+zDnaThAFy0qzAnLxvXruwlbe6ebq7uLt6+XosC/ReHh4ZFLI5YGo4EAPYP8AsNC1m7fs3WjDTWFc/Nz0FXHH3J8CVhCavjs7IzMViNDnnx7iIjEW8jvmjvaMd+LAKzvrSru0tQSGD8qrgUzdzmTSlJ6xLXbtC8QydhdTy61huSEtHxwAgzGtLe0Q7PheDswA6TnSnsHGytbBbYO9qx87eb5lklClSh0wvTjs4OcOVl0ZFHmxsHr1yqa6gFvVsz0gBwYHCAi+Y9IbjgpIKhrC7clzAta6wgIhJiOg0KjNdfTJ85raBwxx/fe/dsT3ehZuZ5a9vx3v7zzceaMCOivLIsLX1LaFgI7kyiftCRRnmwU4V6Y7sT2rDqOtvTDYDrGmpz83Mio5Z6+3oJO1Cs7YQJ1o7MeYQJnL7hAE4ujksiI3aVFHef6xq8cunGres3bl1nDPf0nsNYNJ4HPqqZPYph7UrBjC7pfeCiXYXbC755zVNOXjauXUPDQhYF+uOhQjcPVzcPV3dPNy8fT2/Np4y9fDwRnH0Wenv5eC70942NW7E1Iy0nLxuXwfjcYcyK6PAlYYHBAaFhIWvWrc7bnltSunvPv98isKukWDWAWQ2KEsJaFqZFZmxRWO9SgN08XEPDQhJWx+NaNyl5I16zEr08aklkRMyK6LXr16xLXIvZ4UKA0YTC2M72yBLWtlZSgGXDL7vwE7og0izCRy+Pamo5euXa5fojddsL8jOy0vFQG97c76p5HBThWsihzmkFVqlV6AJg2BkjEYsC/dPSt1wY6P/iqzv9F/tK9+3ZVVKMa+DGpiPllWUHNY/FZm7LCF8S5uruwq5EGMCAk83SkdYPLpqkemTU0vojdYNXLp3t6T7R3npUc1M3b3tuVMwyPK+DKyyMlQgdCWnWiFQCfmVrb+Po7BCxNLx4d1HX2c7LVwdv3r5x49b16zevXb462K95ph8An9B8l7BJ83Bybf1h9jR/ueal0NoD7O37zWP9bPySYezp7eHp7eGlwdjT28PXzydmRXRa+pbs3G0AOCcvG0PoYRGLA4MDwpeEJW5cjwFtTEks1Txje18DjEoHexh28vT2CF8Stnb9ms1pqXg8MHxJGEabQ8NClkVHYoAa09BGBGCEejsH24il4Yfrai5dHsDjY0KAg0ICMbqOx+J1hnY4G+JEY7nAwtbeBre7rWwWFBbv/Menn3z+xWd//fCDjlPtNbWHGpuOIEC1dZwo1zxeUlZxICMrHQCzsxtIBpaskyylVEEJXxJ2sKb60uUBfFy7qeUoei7Ry6N8/XzQEwbDUnqFiizAQvjtHe3wgh4AfOv1m2D4yrXLFwb6z/f1YCgLU0eaNS+1q9PMvsbULl6AvXw88YwRBlAxxIPrdozMoYPt5eMZFbMsZXMyLoOLdxfl5ues37AO94EDghaFhoWs37BuZ1HBvgN7K6rKy/49udhI9oDvgSiMtMppBrCLm7O3r1fE0nC8WCc5ddP6DeviElYmrI6PjVsRGbV0eWzMusS1Sckb16xbvSQyQhWAhc4hTDPflSbQ3wuLWIxn8RqbjuCd/Zg6k7A6HgBjFEDBp2VXDQda4bYW883tNK8dB8M2dt88WtTQWH/37t0vv/7ij++9Cy/p6T339d2vPv38n30XejE1qmhXYeqWlPAlYe6ebqIKYQWmwiwzkCbwJWExfAAAGtlJREFU5BM+boJn7uoaancWFcSsiMbXOvHY9pAMK7suJpCEhoUUFO7o7D5z+ergrddvguGr16+wsWgMZWEW51HN171ZL1oHgDEQg7E3+AaikYvmvi7Gxt093TBkyADO257LAA4MDlgcHioEuLyyDHH4wQN4SWRE4sb1uJ7ckJSIYT10m+NXxWGqzdr1a0YKYAxlO7s6LYmMqD5U1dt/vv5IHebZYS7nuv+vuSt/auvK0vmXZmpqpubHnpofuitpL7HZDEggJDBIgEDsAiEJtIGQBEILQhJoA6EFs2PAZnGMjWMM2GBoJ95YnE5nd+zYgI0Zc7/m1ittcZxkOi4XdfX0pHff0/nuOfcs35HX5/PPo4YR6cTR0pzgCBOEzHGCj8R8C59FLOD0mVMocxkZG35F2tU/f/EMTTTvbqy9OTzYf733+YPPRsaGkW9kaNNX1VSCKY7uSqCEsZzFvGLig7w8rsvTjXgsAIznVlldkcPjUIMFAIbBz1w+6DgegHECpsfL45qtpmsL8yCmfLT58MGj+5/dv3d3Yw0ZHddJe6S5T2YvTU9hGzxESiNC/cFfCmBqQsMHjunBTINnBx7WlLRkQRG/QSE3tOnhYbbaLApVY1mFqEhYKCwtrhZXaXXNbq+rL+iHLeAP9Pp6vR8k1n7v/m68BxfvG6hfIWIQfX60BpY3ynQkj1KlUaJMX6FqrJWI62USNUnJksrrfysAx7svKjHRAxhLgiJ+INSHqlRfrxcEmiA94xcWwLXGFPpoTR7zCBO0zHHMkxMchNMOf7GOsLNZgVDf/uu9/dd7Pz5/OjB0we11Xb9xDT04N+6tX5wc9/V6PT633dmJFAu4gvGI6HNI4CBIgOEcHqfTYVu5s7x8ewl5FCNjwy5PN9gnkRtHXVnvDWBMIIfHaTcbEXbe3H68uf344eMHnz/4DNtgkHKgOyESs0fHR2BFY1GD+eolyVVdLifKD+I5sTLZGRmsdMyfGhFUyBF8gQsdu1xDm95qszi7HYgDV9VUllWIqsVVmma1pcPsD/SGSOkV8r39gd5fDOAIvNGX8QSdzjViQD8YMYg4jblWgUZEUMSXNUj1pJhDZzhivWo1GrS6ZoWqEVUa6iYVAJzD4yCFg4aRqLqIOdtoJxZTQCM+QuU1YnD6zKmUtOT0zHNoY3lrefHi5HgwHHB7XTS4h9gm/FgJMBbzLSZomeOYJycWdKhf+N453GwON9vu7Hyx+9Mr0q/gytW5vqB/Zm4a9iRIoYPhQI/f5/a6NM3qAkE+Ijr4yZjupQQYjjfPLA7bZGlfvr20cmcZAB4dH/H2eODzw0bx1wAYjwI+NuR4z1+/+rfPNrZ2Nrd2Nh9t/rNHIUwA9Ae+QgLCyOscHh2CEv6lGjiDuKkAYJo1hBtBih7GyalJ/MICWYOUArjTYdPqmqGWVBqlo8ve4/ehgjJISqADob6+oP9fBmCsPdF/EwM4LT2V3me7+Yj6AHGzdrNRq2tGlRbYNsBRwgTw6TOnEgMYGUI0jIQEgOj5MOUVfnLqI8GuMinlLDc3R6lWzF6ZWVtfBTciAGy1WdRNqhKRMIu0cUo9lxKB/599yQQtc/yzH2SeQN37p8+cotlpp8+cmrw08ebw4MXuT28ODzD4/ul3t5YXR8dH+gi/XCDUhxtRqBrz8nPTM8/R5wMA4+97AJidzWo1GpZIdcGVq3OTlyZGx0d8vV64DOAHogBm3kvEOGKdpS+x+8VWP4vDNrTpoYEB4M3tx/dJk1Fsgz9dvEFbBINPD2WMA0MXfj2AkSyM58bUwAWCfKm8vtVosNosXS6n3dmpM7TUyyQNCrnO0OLxuQOhPlQ4+49ZLn5LDUx/yF8/YOpkio2zyWdQ4SAo4pss7aDagWZzebo7SWcGE8nw1rfqojUwnRX9RaMHiDEg4J7FYadnnkO0ln6WDvBZLAc4iOx8usTyCwuMprb+gfDI2LA/0OsiDewQgrfZO1r0WuRjoSw+plJKYG3GfCvml8TTwDiOBQsZDv/13/+Zzz+//3rv5d6LvVe7rw72Dw5f7+6//PH50+0nW9Ozl2E99hGmFEeXvUEh5+VxzyR9TB8jczsQc4Y4GG+emewMdZPq08Uba+urFMA9fp9SrcjLz00jCVhUGCJAy3xJ5xMxoD/WRyc+zOKwdYaW+etX0eZ7c/sxtsFIq7y9urK4dJP6sUBtR8k9YLvCIe/t8bg83bCi7aQQ32RpN5rakKpNixBgQmMbTxEL05J6s5JTk8DoiBpDfCealYrrapq0GqvNQk13xPP8hKnmAyZamGMqrBGDaJ3JnFPEye/xEnOAtx2Bb3Y2C/5kVlYm4t3Obkf/QNjb43EeF2F1kqJK8CG8pSmIBjA1WqjOpHPDL02j/EwAp6Ql09Oo9OB8ZAJ/dOJDuCIgHziYnJpUWCxQaZSdpGbdRZhxsabCCaQztMA3E+HIZQpiPEGPd5z52XcZ4zl8dOJDBDP+/T/+7S3xKmhZd/dfHhy+fnN4gJfffPf11OXJweEBGkYCqTp28vi96MPBpeNNMt6CcvL0iUx2hlKtQHrjJ/NXEL/p8fuQDk0XU0wbej7mbUbglr7ECos0mywOu0WvBaXOw8cPIgAMciz4sbAHhh9rkPQW/fUAZqIMcg6dnHueVy+T6Ft1VpsF64KhTS+uqymvLAMnHrjiwhdCwWMKoWA4EBfAzMswx/EAzDznV45paQHq+0tEwvLKslxSKsTL45ZXlrWbjTDkOhl1wjZ7h9VmsdosRlNbg0IOJnfWcSosnVL0/OlbyNmkAEb6HvN8nAlII46KeAkVDiwTGaz0EpFQ3aRCJSqg6+x2oGTM2e1oNRqqaiqRER1TCpnaLAEYmG/F+56Yx5kwOJt8JiUt+S8f/lneKHtzeEDVL1ocHBy+/uqbf0xdngQ7HPgunN0OeaOsQJDPysqkzwRQweWYE4sYx5zPydMnMljpsgbp3Ceza+urFMBI2+QXFiDtmf5SdL2g+HyXAZQeurpomtW41qPNh1s7m/BjfXb/3sa9dYSykM4xe2VmilBzjI6PDBKmnngAhhMLPG3YuwqK+NzcHCRaYQ9PDTQ4ZZjqNynlbO55nkRapzO0AMB2Z6dW11xVU1leWaZQNbq9LvAEDY0MBsMBf6B3YOhCqD/4AVNA/zhjhMjA2yAsLS6rEKE+S1DEr6qp1LfqwD8ChdZJ6IiQyIaKapVGieZm2GoiBBfv7miuLDaErKxMbm4OdH4qYduhiKUyiuoLGJAQJjgkoHsrqysaFHKjqa3L5XR7XfiPqWJlNZraqsVVAHA8yYsn6PGOx/ueeMdPnPordYqCOa28smx3/+Xu/kt0zSX9it48f/Hs/sPPL01PBUJ9lK3GZu+oqa1GdV48AP/Seaalp9ZKxNOzl1fv3gGxK3K/tLpmQREfqenUGUntKaZ99LNj/NAnTv2Vnc1SaZQzc9Nr66sA8NbOJhzRG/fW19ZXqSN69soM9sDjE2MgCXl3ABcWC7i5OaipYIaCqRwy1W9SylleHrdWIoZsd7mclg6zplldLa6SSOtwMBgOwHgGN9DM3PTw6NAHNEHkHQf08r/TAHFtGBVp6amsrEwkgpaWlZSR6kpZg1RnaIHvyk4aNdjsHTCecdBsNcFRhExxsG3QxS/6NrEQQjgoHwhKqNMzz1EAMOUDUov0IHxzcmpSDo8jKi9Funlf0A+/ZQ9pLkF5rVG0DQ3M4WaDOpRegjmIB4B4x5mffccxLB1wYpz6+ORb/gd0rD88fLP/em/v1e7TZz+gMdLkpQnsuIKEybVFry0sFiBDEGJAEYVLx5skNhoxp5eSllxeWTY6PrJ8ewnFTygJ1rfqhKXFcEnQH5GuGswfJcEY5+OHRpmkvFE2eWlibX11c/vx9pMtOKI/P06KXjouLUQoGNvg4dEhZkIlsinpHhiBHwvpsNei1yKViEeKGWkoGNtgqBPIIeQcY25uDmp9EQeGGFeLq5D5b3d22p2dvl4vKOmfPvth+8nWxr313wzA0cB4vyPIGsVPhYL+9MxzyP/mFxZUi6saFHKtrhk0V3bCJAbjmf5Ffxp0iGNns2g5If0VI5YeHIc6hTTn8DjUS0yXSVrjAl8aqEJA/QO7oNVo8Ad6h0eHBocHQOEN3w90r50UBiBmqG/VVVZXZHHYEXtspgjGlPIEB5mf/dkxTSGApYMd5tv6cviu9l7t7r/eOzh8vbWzia5Io+MjAUK8HAwHnN0OhaqxQJAPAMcE1XvMMynlbIlIODg8sERYbKcuT4K6vdVoKBEJUZBEJYquGvS3+9kBPoJyJVZWplRePzF1cfXuna2dze0nW9tPthBJoukcN24uXFuYR0Ll1OVJ5GYjFTxA4jfRAO4kXOVmq0lnaAGAoUJYWZkgEmAqJ6Zc4RkCwFpdM7zQVpsFRRElImFldYWmWd1uNgZCfRv31g/Jv+cvnv34/OkHWAPe/W+E9NOX7/4Nic9k3iTOROIoKysz9zyvvLKsQSHHRp/ScOLBUQC3m41IYSkQ5MOGwQ6EugFjyjeMnAxWOurF80n/JJQWAqX5/POCIj7SYkpEwqqaSqm8XqlWgB7B5ekenxi7tbwIWmNsUcYnxvoHwi5SnO3ostsIM6bVZtHqmpHii/rVmMKXAAMx34p5UwkOJqWcRfNrWi4ja5Bi3/ty78X+673d/Zdr66sTUxdBZxcI9QXDAbuzU6lWlIiEiLGjcpsJJ1wx5gxxMOaU4H0QFPFD/UGYrygJDoYD7WajqLwUm0nIRgSMqQQypxHxSOk5MJpYWZkSad3o+AgAvPPF9s4X25vbj5GPtf63u8uM2mAkVE5MXRwZG04A4C6XkwngeplEWFqce57H4WZTACMaDDmk6dC4qbPJZ3J4nJraalQUQp9rdc01hCAaoVOz1eQP9E5emtjcfvzqYP/F7k+PNh/+4QCMnwfqLv24YiOT9ErOZGe87SUhlddrdc1mq4lS+EEPg9QTRLsKVWNNbbWQkNzTVTCTnYG0mAwSW4/4m3ueB1tdVF4Kz0GJSFhYLBCVl77dHFbVVNbUVkukdVJCh0+tAEuH2e11eXxuX68XdIfgoLfZO7pcTmxaPD43FC98bGifUyISYl8XIWr0ZUxBf4+D9AuZAwg0EmPS0lPxeCurK54++wGdPnf3Xz599sPt1ZXJSxNQhv5Ar7fHo9U1l5aVwEGAKj9gOKYejjlbGNvMycCJcCbp4wJBfl/Qv7h088bNBQpgk6W9vLKMl8fFVggmA70cRWbiAcU8BqyszFqJeGRseG19dWtnkwlg5GO9H4CxobN0mBG/BaUEAExXSaqTkgmFI2CMZ8ghva/1rTpLh9nZ7bDaLC16bb1MUiISotJO36rDHvjS9NTt1RXkkP1iACfWn9HvMleadxknpZw9efoEzVw59fFJBJMA5rz8XHFdDTQwFJrZatK36kyWdhRqAE52Zydo73H/IKwrEOQLCDkWVaRMcIoJO1GtRFwrEUukdShLlBJCPFmDtEEhV6ga1aQIWUtIfNoJ1z56nSLA2+VyukitprPb4fa68Bs4uuw03AWTwWqzqDRKYWkxdcxg+w0fKYSeOsmYgo5xTFTgs9EnJz5y+swpPOdUUvlcJCz8+tuvEP7de7X77Kcf726szV+/Ojg8EAj1eXs8mma1qLw0n3+eRyiaIJT0EkzPcIK9Lj2fbpupFzD3PK/L5by9urJyZxm7j0Coz2Rph8OPLrjRLkm6I4gHYwp4CuCa2urh0SE4sZ78fWfni234sR48uv83UtVAi/tnjusKR8aG4fjtI1VZ3h6Pl2RTYnV2H3PWWW0WGsjMJRx6VANDhWBLnEzYRZi1SlkcdrW4Cv4d2GtaXbNUXi8ipbLIpoQ4hS+ERsaGL01PXbk694cDMIhRPjrx4f/875/S0lPz8nMLiwVFwsLSspLSshJwArWbjUAvwkjXFuY/f3BEaIildOHT60Mjg8hb1LfqlKToHyw8sE/MVpPxuD8DyhKRhtlAqDzkjTLAValWoFJCpVEyoYv8TaRwGk1t7WYjukkAxh6fu5MEpf2B3ompi6PjI/5AL/BsJ34IJGMBwGDeinau/t4Aph47LI6IBhUI8je3H6Pj5sHh6yd/31m5s3xreRFs6W6vC0xjaLQb060ab3FhHqcAjliw/vLhn4WlxbNXZr5/+t3GvfXp2csDQxeC4UCnwyZrkCKXAwoAaARomeN46MVxphJmZWVWi6uGRgZ/DYBpUW6Xywk3h8fnBoxpTT+/sIBGklLPpQCuVBtDJ9FSYXY2q7K6Qt2kQk2/o8tutpoMbXrk+SN92Nnt8PZ4AqG+AdLk6eLk+B8OwAhLFgjy62USsJPVyyTAklKtaNJqgBnQc1o6zOELoecvniHy8XLvxauD/fnrV3v8PmAbzzRIelvBhYgwAMzadrMRDWahXVUapYIwWqKkCfS0FMbAcNMx77ShTY+ZtJuN0MOUpNvRZff1emfmph88ur9yZzkQ6sNkcILVZmnSakTlpTBEmWJHldL/A4BhwsFiwjrylvviwaP7SKI8PDy8u7E2e2Xm2sI8SJg9PremWV1YLIA+SSG0NRHKMCZQKWIjBhTASAU7ceqvtRLxwqfXv/nua7i+L06OI11Hq2uG05v6RyI0KtzLgCjzeTLHeBf3m8nOKK8sGxi6gJ5MMTUwGsqgexMiSbSeAYWWvl4vSjtoPcP4xNj07OVAqA9KWNYgLREJeXlcug2GKwsemdRzKXhJyToQxVBplCZLO7Q6VnxDmx6KBAEOl6fb1+sNknToo0SOaKP3tz3yLmYz8xxQFhhNbfPXr/p6veDHqZdJ5I0yMFG2koYpZqsJbSzGJ8aek0av337/zca99eXbS26vC/ato8uO9FG4EPEDuAkdCULHhjZ9i16rblIp1QotaSdHiWmVaoWaFDbhL2qeWvRaneGouaGRNKdC7ArToAsKOH7dXtfg8MD89atTlyeR6YkrwtOGVEqszUwhe28AAxvMr0o8pi5QiDUAzC8smPtkFtVI+6/3FpduBgmJzADhsuvx+1r0Wmo4QHWnErZHqtwiIBrvJeaGdxE/B2Gwplk9Oj5ya3nx1vLitYV50Dv3+H1GUxt8OXhi8JnTiwLM9GW8G8cJkO0MVnpZhSh8IZQYwAvH7ddoOvTA0IXwhRAA3OP3QQm7jjPtZuamF5duoozZaGpTaZTV4qrc8zx4UpGWT11WSA1mZ7O4uTn8wgJwUWia1RAts9XUSrrVQ5k3KORg2+l02LpcTg/pqPrPeuDfFq7R38YEJ3Oclp4a8z/oRWolYqvNUi+TFAjymTcJ3y+IC6w2i50QcE5dnpy6PNk/EAY4EQ02ke5SnQ6by9PtIdQw8OwBaSaSs2po0+sY7R1a9EfNhEHWQ9Hboj/q24L/TVoN/Y8j6DGlVCsaFHJQySPEBbva2+OBRQ33BuUTNLTpq8VV2EniiUG8YNkyLepoDCQWUCrHgCjzZcQY10XhFEw7djZLoWpcvXvn+Ytn33z39fjEGPKKAqRxibPb0aTVgKEKPxwy1ZhfGz3bmEeYdi9NnhHX1bg83YjADZNQHFJH0Aqr1WhQqhW1EjHI2cFyToWNrkfUo8acFR3D6EDqqLC0OBDqW7mz/GjzYTwNvPDpEc87Iklobj44PNA/EIZvEpnJvl4vpM7u7ER3iFB/0GbvMFnatbpmibQOhORQwjQAyc5mCYr4yJHUGVrszs4ev69/IDw4PODxuS0d5hZCnwbrT94okzfK9K06UMkiOwjodXtd/zINHBO9uENubk6RsLC8sgy0YNTwQCRJWFqMlFG7s9NNPMAgB4LVAddRq9FgsrRDS8P3i8wt0LsCvVjh9K06naGF+T8CxtDJwKdEWieuq0HX5rIKkai8FB5CQRG/QJAPPzbIe9G9BhdFoQXVwJ0OW6vRgCo5eFaZliGkLQGGfxMA0y9JSUumNGvpmecKBPnhC6Gnz37Y3H4cCPXB3HB2O/qCflQyFwkLgVvAgImcCHOaXiJiAIOZkkWe+vhkUspZDje7QSF3ebqHSOPfUH8QIIGwwjtod3YiQIggFkUvQEtfUrhGD2D242+RsBDc7vEAvMTI5QDB3ej4yNDIIHbmTCXs9rpgZHl8bnT6NZHWodDABYL8AkF+HukTVCQsrKqphGy4PEf9N0fGhmfmptFvFbSYaEmB6jql+qgTvVRer25S6QwtZqvJ2e2AQvKTgqSjaiR657/TgKl1meN4AGZns/iFBeWVZSjmyOKwsVfEc09LT+Vws6vFVcia6B8I9xGSMehYeI8cXUftv81WE1S0o8vuOG765ux2mEmXM2OUEwtPijZhqZWIaTBJWHrU4YFfWACIIs0jh8fhcLPZ2SwWYRWkxGVp6ak5PE5ZhUipVpitJkwJrN/YA9udnUZTm7iuhpubgyo5CmCqQH4pgCGsEb8gvjZajqnNmZx6RJ0PKGZx2KysTA43+20NPXKwbtxcQHwOcRGlWiGR1iH6hZsFJwHzohFYjfkSV8QNnk0+c/L0ieTUJF4eV6VRenzu/oFw/0AY+fqo4oJL3+11YeGTN8pE5aW8PC7uDhLFnEO8cVLKWezO8EF+YUGP33dreTEegKMjScimhCMauRxQwh6f23Vck4RYptHU1mo06AwtSrUCPYCgP5HPPHV58trC/OLSzZU7y+vHnD7bT7YePn6ALLTxiTFsA5u0GnmjTNYgVTepmrQahFpgdQbDgfGJsZm56T8cgDNY6YIifmV1RS5xwQMkwC0qE+CsM5raQv3B4dEht9flD/SikRQiw/AJ20ivGuZfGIT6Vh21T+AkA1CRoSEqL4VeLSwWYALsbBZQyiJM4rA20xl8gliJ4EukYCgSFipUjdQKgJ8DAAZ1cK1EzM3NgT/jdwJwPFHGcSRyIJiBXDc0pmg3G7/9/ps3hwf/+PrL/oEwUkH1rboGhVwirSurEMELnUmC6swVGfkJMdcL5sGYAM7Lz1VplP0D4eHRIXgcocrAZOLydJutJq2uuUEhF9fVwIpmXhrB4cRgBoCxYianJhUI8n293p8F8HXCrTNLMqLHJ8Zg29N0aApgRBmoFxowxn61L+gfGhm8ND01f/3qjZsLSyu3Vu4s391Ye/Do/iNSR/HFl0+e/H3n62+/+uLLJ2vrq0srtxC6c3TZW/RaABgOIJ2hxUiiHqjGAynf/wG9sncvzr9eCgAAAABJRU5ErkJggg==;" vertex="1" parent="1">
          <mxGeometry x="51.870000000000005" y="920" width="106.67" height="80" as="geometry" />
        </mxCell>
      </root>
    </mxGraphModel>
  </diagram>
</mxfile>
